<?xml version="1.0" encoding="utf-8"?>
<!-- Generator: Adobe Illustrator 25.2.1, SVG Export Plug-In . SVG Version: 6.00 Build 0)  -->
<svg version="1.1" id="Layer_1" xmlns="http://www.w3.org/2000/svg" xmlns:xlink="http://www.w3.org/1999/xlink" x="0px" y="0px"
	 viewBox="0 0 63 63" style="enable-background:new 0 0 63 63;" xml:space="preserve">
<style type="text/css">
	.st0{fill:#EE2B2F;}
</style>
<g id="Archery">
	<path d="M27.7,18.1c1.9,0,3.5-1.6,3.5-3.5s-1.6-3.5-3.5-3.5s-3.5,1.6-3.5,3.5S25.8,18.1,27.7,18.1z M27.7,12.1
		c1.4,0,2.5,1.1,2.5,2.5s-1.1,2.5-2.5,2.5s-2.5-1.1-2.5-2.5S26.3,12.1,27.7,12.1z"/>
	<path class="st0" d="M47.1,24C47.1,24,47.1,24,47.1,24c-0.6,4.6-2.6,8.8-5.9,12.1c-0.2,0.2-0.2,0.5,0,0.7c0.1,0.1,0.2,0.1,0.4,0.1
		s0.3,0,0.4-0.1c3.5-3.5,5.6-7.9,6.1-12.7c-0.1,0-0.2,0-0.3,0C47.5,24.1,47.3,24,47.1,24z"/>
	<path class="st0" d="M47.7,19.1c0.1,0,0.2,0,0.3,0c-0.5-4.8-2.7-9.3-6.1-12.7c-0.2-0.2-0.5-0.2-0.7,0s-0.2,0.5,0,0.7
		c3.3,3.3,5.3,7.5,5.8,12c0,0,0,0.1,0,0.1C47.3,19.1,47.5,19.1,47.7,19.1z"/>
	<path d="M48.1,19.1c-0.1,0-0.2,0-0.3,0c-0.2,0-0.4,0-0.7,0.1c0,0,0-0.1,0-0.1H15.7c-1.4,0-2.5,1.1-2.5,2.5s1.1,2.5,2.5,2.5h7.5v11
		l-7.5,18c-0.5,1.3,0.1,2.7,1.4,3.3c0.3,0.1,0.6,0.2,1,0.2c1,0,1.9-0.6,2.3-1.5l7-16.9h0.7l7,16.9c0.5,1.3,2,1.9,3.3,1.4
		c1.3-0.5,1.9-2,1.4-3.3l-7.5-18v-11h14.8c0,0,0-0.1,0-0.1c0.2,0.1,0.4,0.1,0.7,0.1c0.1,0,0.2,0,0.3,0c1.2-0.2,2.2-1.2,2.2-2.5
		S49.3,19.3,48.1,19.1z M48.2,23c-0.1,0-0.3,0.1-0.4,0.1c-0.2,0-0.4,0-0.6-0.1c-0.5-0.2-0.9-0.8-0.9-1.4s0.4-1.2,0.9-1.4
		c0.2-0.1,0.4-0.1,0.6-0.1c0.2,0,0.3,0,0.4,0.1c0.6,0.2,1.1,0.8,1.1,1.4S48.8,22.8,48.2,23z M36,54.6l-7.1-17.2
		c-0.1-0.2-0.3-0.3-0.5-0.3h-1.3c-0.2,0-0.4,0.1-0.5,0.3l-7.1,17.2c-0.3,0.8-1.2,1.1-2,0.8c-0.8-0.3-1.1-1.2-0.8-2l7.5-18.1
		c0-0.1,0-0.1,0-0.2v-1.1h7v1.1c0,0.1,0,0.1,0,0.2l7.5,18.1c0.3,0.8,0,1.6-0.8,2C37.2,55.8,36.3,55.4,36,54.6z M14.2,21.6
		c0-0.8,0.7-1.5,1.5-1.5h8c0.8,0,1.5,0.7,1.5,1.5s-0.7,1.5-1.5,1.5h-8C14.9,23.1,14.2,22.4,14.2,21.6z M31.7,23.1
		c-0.3,0-0.5,0.2-0.5,0.5v9.5h-7V24c1.1-0.2,2-1.2,2-2.4c0-0.6-0.2-1.1-0.5-1.5h20c-0.3,0.4-0.5,0.9-0.5,1.5s0.2,1.1,0.5,1.5H31.7z"
		/>
</g>
</svg>
