<?xml version="1.0" encoding="utf-8"?>
<!-- Generator: Adobe Illustrator 25.2.1, SVG Export Plug-In . SVG Version: 6.00 Build 0)  -->
<svg version="1.1" id="Layer_1" xmlns="http://www.w3.org/2000/svg" xmlns:xlink="http://www.w3.org/1999/xlink" x="0px" y="0px"
	 viewBox="0 0 63 63" style="enable-background:new 0 0 63 63;" xml:space="preserve">
<g id="Athletics">
	<path d="M43.2,21.2c0.9,0,1.8-0.4,2.5-1s1-1.5,1-2.5c0-0.9-0.4-1.8-1-2.5c-1.4-1.4-3.6-1.4-4.9,0c-1.4,1.4-1.4,3.6,0,4.9
		C41.3,20.8,42.2,21.2,43.2,21.2z M44.9,15.9c0.5,0.5,0.7,1.1,0.7,1.8c0,0.7-0.3,1.3-0.7,1.8c-0.9,0.9-2.6,0.9-3.5,0
		c-1-1-1-2.6,0-3.5c0.5-0.5,1.1-0.7,1.8-0.7S44.4,15.5,44.9,15.9z"/>
	<path d="M47.8,20.9l-3.9,3.9L40,20.9c0,0,0,0,0,0l-5.6-5.7c-1-1-2.6-1-3.5,0l-5.7,5.7c-1,1-1,2.6,0,3.5c0.5,0.5,1.1,0.7,1.8,0.7
		c0.7,0,1.3-0.3,1.8-0.7l3.9-3.9l1.4,1.4l-6.7,6.7l-1.4,1.4c-0.6,0.6-0.8,1.4-0.7,2.1L12.4,44.9c-1,1-1,2.6,0,3.5
		c0.5,0.5,1.1,0.7,1.8,0.7c0.6,0,1.3-0.2,1.8-0.7l12.4-12.4l3.5,3.5l-5.3,5.3c-1,1-1,2.6,0,3.5c0.5,0.5,1.1,0.7,1.8,0.7
		c0.6,0,1.3-0.2,1.8-0.7l7.1-7.1c1-1,1-2.6,0-3.5l-4.6-4.6l6.4-6.4l3.2,3.2c0.5,0.5,1.1,0.7,1.8,0.7c0,0,0,0,0,0
		c0.7,0,1.3-0.3,1.8-0.7l5.7-5.7c0.5-0.5,0.7-1.1,0.7-1.8c0-0.7-0.3-1.3-0.7-1.8C50.3,19.9,48.7,19.9,47.8,20.9z M42.8,29.4l-4.9-5
		c0,0-0.1,0-0.1-0.1c-0.2-0.1-0.4-0.1-0.6,0.1c-0.2,0.2-0.2,0.5,0,0.7l1.1,1.1l-6.4,6.4L28.3,29l7.4-7.4c0.9-0.9,2.6-0.9,3.5,0l0,0
		c0,0,0.1,0.1,0.1,0.1l0,0l4.2,4.2c0.2,0.2,0.5,0.2,0.7,0l4.2-4.2c0.6-0.6,1.5-0.6,2.1,0c0.3,0.3,0.4,0.7,0.4,1.1
		c0,0.4-0.2,0.8-0.4,1.1l-5.7,5.7c-0.3,0.3-0.6,0.4-1.1,0.4C43.5,29.8,43.1,29.7,42.8,29.4z M27.2,47.8c-0.3-0.3-0.4-0.7-0.4-1.1
		s0.2-0.8,0.4-1.1l5.7-5.7c0.1-0.1,0.1-0.2,0.1-0.4s-0.1-0.3-0.1-0.4l-6.4-6.4c-0.1-0.1-0.2-0.3-0.3-0.4c-0.1-0.2-0.1-0.4-0.1-0.6
		c0-0.4,0.1-0.8,0.4-1.1c0,0,0,0,0,0l1.1-1.1l8.8,8.8c0.6,0.6,0.6,1.5,0,2.1l-7.1,7.1C28.8,48.4,27.8,48.4,27.2,47.8z M13.1,47.8
		c-0.6-0.6-0.6-1.5,0-2.1l12.4-12.4c0.1,0.1,0.2,0.3,0.3,0.4l1.8,1.8L15.2,47.8C14.6,48.4,13.7,48.4,13.1,47.8z M32.2,19.5L28,23.7
		c-0.6,0.6-1.6,0.6-2.1,0c-0.6-0.6-0.6-1.5,0-2.1l5.7-5.7c0.6-0.6,1.5-0.6,2.1,0l4,4c-0.9,0-1.9,0.3-2.6,1l-0.3,0.3l-1.8-1.8
		C32.7,19.3,32.4,19.3,32.2,19.5z"/>
</g>
</svg>
