<?xml version="1.0" encoding="utf-8"?>
<!-- Generator: Adobe Illustrator 25.2.1, SVG Export Plug-In . SVG Version: 6.00 Build 0)  -->
<svg version="1.1" id="Layer_1" xmlns="http://www.w3.org/2000/svg" xmlns:xlink="http://www.w3.org/1999/xlink" x="0px" y="0px"
	 viewBox="0 0 63 63" style="enable-background:new 0 0 63 63;" xml:space="preserve">
<style type="text/css">
	.st0{fill:#EE2B2F;}
	.st1{fill:#FCB019;}
</style>
<g id="Badminton">
	<path class="st0" d="M54.8,5.5c0,0-3.4,1-3.6,1c0,0,0,0,0,0c-0.4,0.1-0.7,0.5-0.7,1s0.3,0.8,0.7,1c0,0,0,0,0,0c0.2,0,3.6,1,3.6,1
		c0,0,0.1,0,0.1,0c0.1,0,0.2,0,0.3-0.1c0.1-0.1,0.2-0.2,0.2-0.4V6c0-0.2-0.1-0.3-0.2-0.4C55.1,5.5,54.9,5.5,54.8,5.5z M54.4,8.4
		c-2.1-0.6-2.8-0.8-3-0.8l0,0l0,0c0.2-0.1,0.9-0.2,3-0.8V8.4z"/>
	<path d="M42.8,16.6l-4.9,4.9h-15c-0.7,0-1.3,0.3-1.8,0.7l-3.9,3.9l-3.9-3.9c-0.1-0.1-0.1-0.1-0.2-0.2C13.1,22,13,22,13,21.9
		c-0.1-0.1-0.2-0.1-0.2-0.1c-0.1,0-0.1-0.1-0.2-0.1c-0.1,0-0.2-0.1-0.2-0.1c-0.1,0-0.1-0.1-0.2-0.1c0,0,0,0,0,0c-0.1,0-0.2,0-0.3,0
		c-0.1,0-0.1,0-0.2,0c-0.1,0-0.2,0-0.2,0c-0.1,0-0.2,0-0.3,0c0,0,0,0,0,0c-0.1,0-0.2,0.1-0.2,0.1c-0.1,0-0.1,0-0.2,0.1
		c-0.1,0-0.1,0.1-0.2,0.1c-0.1,0-0.1,0.1-0.2,0.1C10.1,22,10,22.1,10,22.1c0,0-0.1,0.1-0.1,0.1c-0.1,0.1-0.2,0.2-0.2,0.3
		c0,0,0,0,0,0c-0.1,0.1-0.2,0.3-0.3,0.5c0,0,0,0,0,0c-0.1,0.1-0.1,0.3-0.1,0.4c0,0,0,0.1,0,0.1c0,0.2-0.1,0.3-0.1,0.5s0,0.3,0.1,0.5
		c0,0,0,0.1,0,0.1c0,0.1,0.1,0.3,0.1,0.4c0,0,0,0,0,0c0.1,0.2,0.2,0.3,0.3,0.5c0,0,0.1,0.1,0.1,0.1c0.1,0.1,0.1,0.1,0.2,0.2l1.3,1.3
		v-0.6c0.2,0,0.3,0.1,0.5,0.1c0.1,0,0.2,0,0.3,0c0.1,0,0.1,0,0.2,0c1-0.2,1.8-1.1,2-2.1l2.8,2.8c0.1,0.1,0.2,0.1,0.4,0.1
		s0.3-0.1,0.4-0.1l4.2-4.2c0.3-0.3,0.7-0.4,1.1-0.4h15.2c0.1,0,0.3-0.1,0.4-0.1l5.1-5.1c0.6-0.6,1.5-0.6,2.1,0
		c0.3,0.3,0.4,0.7,0.4,1.1s-0.2,0.8-0.4,1.1L40,25.1c-0.3,0.3-0.7,0.4-1.1,0.4l-8,0c-0.3,0-0.5,0.2-0.5,0.5v9.5h-7v-8.7
		c0-0.2-0.1-0.4-0.3-0.5c-0.2-0.1-0.4,0-0.5,0.1l-4.2,4.2c-0.6,0.6-1.6,0.6-2.1,0l-4.1-4.1V28c0,0,0,0,0,0l3.4,3.4
		c0.9,0.9,2.6,0.9,3.5,0l3.4-3.4v8v1L9,50.4c-1,1-1,2.6,0,3.5c1,1,2.6,1,3.5,0l13.4-13.4h0.5V47l-6.3,6.3c-0.5,0.5-0.7,1.1-0.7,1.8
		s0.3,1.3,0.7,1.8c0.5,0.5,1.1,0.7,1.8,0.7s1.3-0.3,1.8-0.7l7.1-7.1c0.5-0.5,0.7-1.1,0.7-1.8V36v-9.5l7.5,0c0.7,0,1.3-0.3,1.8-0.7
		l5.7-5.7c0.5-0.5,0.7-1.1,0.7-1.8s-0.3-1.3-0.7-1.8C45.4,15.6,43.8,15.6,42.8,16.6z M12.1,25.4c-0.2,0.1-0.3,0.1-0.5,0.1
		s-0.3,0-0.5-0.1c-0.3-0.1-0.5-0.3-0.7-0.5c0,0,0,0,0,0c0-0.1-0.1-0.1-0.1-0.2c0,0,0,0,0,0c0-0.1,0-0.1-0.1-0.2c0,0,0,0,0-0.1
		c0-0.1,0-0.2,0-0.3c0-0.1,0-0.2,0-0.3c0,0,0,0,0-0.1c0-0.1,0-0.2,0.1-0.2c0,0,0,0,0,0c0.1-0.2,0.2-0.3,0.3-0.5
		c0.1-0.1,0.3-0.2,0.5-0.3c0,0,0,0,0,0c0,0,0,0,0.1,0c0.2-0.1,0.3-0.1,0.5-0.1s0.3,0,0.5,0.1c0,0,0,0,0,0c0,0,0,0,0,0
		c0.2,0.1,0.3,0.2,0.5,0.3c0.3,0.3,0.4,0.6,0.4,1.1C13.1,24.7,12.7,25.2,12.1,25.4z M30.4,48c0,0.4-0.2,0.8-0.4,1.1l-7.1,7.1
		c-0.6,0.6-1.6,0.6-2.1,0c-0.3-0.3-0.4-0.7-0.4-1.1s0.2-0.8,0.4-1.1l6.5-6.5c0.1-0.1,0.1-0.2,0.1-0.4V40c0-0.3-0.2-0.5-0.5-0.5h-1.2
		c-0.1,0-0.3,0.1-0.4,0.1L11.8,53.2c-0.6,0.6-1.5,0.6-2.1,0c-0.6-0.6-0.6-1.5,0-2.1l13.6-13.6c0.1-0.1,0.1-0.2,0.1-0.4v-0.7h7V48z"
		/>
	<path class="st1" d="M11.4,21.5c0.1,0,0.2,0,0.2,0c0.1,0,0.1,0,0.2,0c0.1,0,0.2,0,0.3,0c0,0,0,0,0,0v-5.1c1.7-0.3,3-2.2,3-4.4
		c0-2.5-1.6-4.5-3.5-4.5s-3.5,2-3.5,4.5c0,2.3,1.3,4.1,3,4.4v5.1c0,0,0,0,0,0C11.2,21.5,11.3,21.5,11.4,21.5z M9.1,12
		c0-1.9,1.1-3.5,2.5-3.5s2.5,1.6,2.5,3.5s-1.1,3.5-2.5,3.5S9.1,13.9,9.1,12z"/>
	<path class="st1" d="M12.1,26.6v-0.2c-0.1,0-0.1,0-0.2,0c-0.1,0-0.2,0-0.3,0c-0.2,0-0.3,0-0.5-0.1V27v1c0,0.3,0.2,0.5,0.5,0.5
		c0.3,0,0.5-0.2,0.5-0.5c0,0,0,0,0,0V26.6z"/>
	<path d="M26.9,20.5c1.9,0,3.5-1.6,3.5-3.5s-1.6-3.5-3.5-3.5s-3.5,1.6-3.5,3.5S25,20.5,26.9,20.5z M26.9,14.5c1.4,0,2.5,1.1,2.5,2.5
		s-1.1,2.5-2.5,2.5s-2.5-1.1-2.5-2.5S25.5,14.5,26.9,14.5z"/>
</g>
</svg>
