<?xml version="1.0" encoding="utf-8"?>
<!-- Generator: Adobe Illustrator 25.2.1, SVG Export Plug-In . SVG Version: 6.00 Build 0)  -->
<svg version="1.1" id="Layer_1" xmlns="http://www.w3.org/2000/svg" xmlns:xlink="http://www.w3.org/1999/xlink" x="0px" y="0px"
	 viewBox="0 0 72 72" style="enable-background:new 0 0 72 72;" xml:space="preserve">
<style type="text/css">
	.st0{fill:#2A76BC;}
	.st1{fill:#EE2B2F;}
</style>
<g id="Basketball">
	<path class="st0" d="M67,4.4H55.9c-0.2,0-0.3,0.1-0.4,0.2c-0.1,0.1-0.1,0.3-0.1,0.5l2.2,8.9c0.1,0.2,0.3,0.4,0.5,0.4h6.6
		c0.3,0,0.5-0.2,0.5-0.4l2.2-8.9c0-0.2,0-0.3-0.1-0.5C67.3,4.5,67.2,4.4,67,4.4z M64.4,13.3h-5.8l-1.9-7.8h9.7L64.4,13.3z"/>
	<path d="M58.2,26.6H32.7l-4.6-4.6v-7.7c0-0.2,0-0.4-0.1-0.6c-0.3,0.3-0.7,0.5-1.1,0.7v7.8c0,0.1,0.1,0.3,0.2,0.4l5,5
		c0.1,0.1,0.2,0.2,0.4,0.2h25.7c0.9,0,1.7,0.7,1.7,1.7c0,0.9-0.7,1.7-1.7,1.7H40.4c-0.3,0-0.6,0.2-0.6,0.6v10.5h-7.8v-9.6
		c0-0.1-0.1-0.3-0.2-0.4l-7.8-7.8c-0.3-0.3-0.5-0.7-0.5-1.2v-8.7c-0.4-0.2-0.7-0.4-1.1-0.7c0,0.2-0.1,0.4-0.1,0.6v8.9
		c0,0.7,0.3,1.4,0.8,2c0,0,0,0,0,0l7.7,7.7v9.9v10.5h-3.9c-1.5,0-2.8,1.2-2.8,2.8c0,1.5,1.2,2.7,2.7,2.8L24,61.8
		c-0.5,0.5-0.8,1.2-0.8,2s0.3,1.4,0.8,2c0.5,0.5,1.2,0.8,2,0.8s1.4-0.3,2-0.8l7-7h3.3c1.5,0,2.8-1.2,2.8-2.8V42.6V32.1h17.2
		c1.5,0,2.8-1.2,2.8-2.8C60.9,27.8,59.7,26.6,58.2,26.6z M25.5,55.9c0-0.9,0.7-1.7,1.7-1.7H31v0.5l-2.8,2.8h-1.1
		C26.2,57.6,25.5,56.9,25.5,55.9z M39.9,53.7v2.2c0,0,0,0,0,0c0,0.9-0.7,1.7-1.7,1.7H36c0.4-0.5,0.6-1.1,0.6-1.7c0,0,0,0,0,0v-1.7
		v-1.1v-6.1c0-0.3-0.2-0.6-0.6-0.6c-0.3,0-0.6,0.2-0.6,0.6v6.1v1.1v1.7c0,0.4-0.2,0.9-0.5,1.2l-0.5,0.5l-1.1,1.1l-6.2,6.2
		c-0.6,0.6-1.7,0.6-2.3,0c-0.3-0.3-0.5-0.7-0.5-1.2s0.2-0.9,0.5-1.2l3.9-3.9l1.1-1.1l2.2-2.2c0.1-0.1,0.2-0.2,0.2-0.4v-0.7v-1.1v-10
		h7.8V53.7z"/>
	<path d="M36,25.5c2.1,0,3.9-1.7,3.9-3.9s-1.7-3.9-3.9-3.9c-2.1,0-3.9,1.7-3.9,3.9S33.9,25.5,36,25.5z M36,18.8
		c1.5,0,2.8,1.2,2.8,2.8c0,1.5-1.2,2.8-2.8,2.8s-2.8-1.2-2.8-2.8C33.2,20.1,34.5,18.8,36,18.8z"/>
	<path class="st1" d="M25.3,14.8c0.6,0,1.2-0.1,1.7-0.4c0.4-0.2,0.7-0.4,1.1-0.7c0.7-0.7,1.2-1.7,1.2-2.8c0-2.1-1.7-3.9-3.9-3.9
		s-3.9,1.7-3.9,3.9c0,1.1,0.4,2.1,1.2,2.8c0.3,0.3,0.7,0.5,1.1,0.7C24.1,14.6,24.7,14.8,25.3,14.8z M23.1,12.6
		c-0.4-0.5-0.6-1-0.6-1.7c0-1.5,1.2-2.8,2.8-2.8s2.8,1.2,2.8,2.8c0,0.6-0.2,1.2-0.6,1.7c-0.2,0.3-0.5,0.5-0.8,0.7
		c-0.4,0.2-0.9,0.4-1.4,0.4s-1-0.1-1.4-0.4C23.6,13.1,23.3,12.9,23.1,12.6z"/>
</g>
</svg>
