<?xml version="1.0" encoding="utf-8"?>
<!-- Generator: Adobe Illustrator 25.2.1, SVG Export Plug-In . SVG Version: 6.00 Build 0)  -->
<svg version="1.1" id="Layer_1" xmlns="http://www.w3.org/2000/svg" xmlns:xlink="http://www.w3.org/1999/xlink" x="0px" y="0px"
	 viewBox="0 0 63 63" style="enable-background:new 0 0 63 63;" xml:space="preserve">
<style type="text/css">
	.st0{fill:#FCB019;}
	.st1{fill:#00A64F;}
</style>
<g id="Beach_volleyball">
	<path class="st0" d="M1.5,52.7c-0.1,0-0.1,0.1-0.2,0.1c-0.1,0-0.1,0.1-0.1,0.2c0,0.1,0,0.1,0,0.2c0,0.1,0.1,0.3,0.2,0.3
		c0,0.1,0.1,0.1,0.2,0.1c0.1,0,0.1,0,0.2,0c0.1,0,0.3-0.1,0.4-0.2c0.1-0.1,0.1-0.2,0.1-0.3c0-0.1,0-0.3-0.1-0.4
		C1.9,52.7,1.7,52.6,1.5,52.7z"/>
	<path class="st0" d="M3.9,52.7c-0.2-0.1-0.4,0-0.5,0.1c-0.1,0.1-0.2,0.2-0.2,0.4c0,0.1,0,0.1,0,0.2c0,0.1,0.1,0.1,0.1,0.2
		c0.1,0.1,0.2,0.1,0.3,0.1c0.1,0,0.1,0,0.2,0c0.1,0,0.1-0.1,0.2-0.1c0-0.1,0.1-0.1,0.1-0.2c0-0.1,0-0.1,0-0.2c0-0.1,0-0.3-0.1-0.4
		C4,52.7,4,52.7,3.9,52.7z"/>
	<path class="st0" d="M5.5,52.7c-0.1,0-0.1,0.1-0.2,0.1c-0.1,0-0.1,0.1-0.1,0.2c0,0.1,0,0.1,0,0.2c0,0.1,0.1,0.3,0.2,0.3
		c0,0.1,0.1,0.1,0.2,0.1c0.1,0,0.1,0,0.2,0c0.1,0,0.3-0.1,0.4-0.2c0.1-0.1,0.1-0.2,0.1-0.3c0-0.1,0-0.3-0.1-0.4
		C5.9,52.7,5.7,52.6,5.5,52.7z"/>
	<path class="st0" d="M8.1,52.8c-0.2-0.2-0.5-0.2-0.7,0c-0.1,0-0.1,0.1-0.1,0.2c0,0.1,0,0.1,0,0.2c0,0.1,0.1,0.3,0.2,0.3
		c0.1,0.1,0.2,0.2,0.3,0.2c0.1,0,0.3-0.1,0.4-0.2c0.1-0.1,0.1-0.2,0.1-0.3c0-0.1,0-0.1,0-0.2C8.2,52.9,8.1,52.8,8.1,52.8z"/>
	<path class="st0" d="M9.9,52.7c-0.2-0.1-0.4,0-0.5,0.1c-0.1,0.1-0.2,0.2-0.2,0.4c0,0.1,0.1,0.3,0.2,0.3c0.1,0.1,0.2,0.2,0.3,0.2
		c0.1,0,0.1,0,0.2,0c0.1,0,0.1-0.1,0.2-0.1c0.1-0.1,0.1-0.2,0.1-0.3c0-0.1,0-0.3-0.1-0.4C10,52.7,10,52.7,9.9,52.7z"/>
	<path class="st0" d="M11.5,52.7c-0.1,0-0.1,0.1-0.2,0.1c-0.1,0.1-0.2,0.2-0.2,0.4c0,0.1,0.1,0.3,0.2,0.3c0.1,0.1,0.2,0.2,0.3,0.2
		c0.1,0,0.3-0.1,0.4-0.2c0.1-0.1,0.1-0.2,0.1-0.3c0-0.1,0-0.3-0.1-0.4C11.9,52.7,11.7,52.6,11.5,52.7z"/>
	<path class="st0" d="M13.4,52.8c-0.1,0.1-0.2,0.2-0.2,0.4c0,0.1,0,0.1,0,0.2c0,0.1,0.1,0.1,0.1,0.2c0.1,0.1,0.2,0.2,0.3,0.2
		c0.1,0,0.3-0.1,0.4-0.2c0.1-0.1,0.1-0.2,0.1-0.3c0-0.1,0-0.3-0.1-0.4C13.9,52.6,13.6,52.6,13.4,52.8z"/>
	<path class="st0" d="M16.1,52.8c-0.2-0.2-0.5-0.2-0.7,0c-0.1,0.1-0.2,0.2-0.2,0.4c0,0.1,0.1,0.3,0.2,0.4c0.1,0.1,0.2,0.1,0.3,0.1
		c0.1,0,0.3-0.1,0.4-0.1c0.1-0.1,0.1-0.2,0.1-0.4c0-0.1,0-0.1,0-0.2C16.2,52.9,16.1,52.8,16.1,52.8z"/>
	<path class="st0" d="M17.4,52.8c-0.1,0.1-0.2,0.2-0.2,0.4c0,0.1,0.1,0.3,0.2,0.3c0.1,0.1,0.2,0.2,0.3,0.2c0.1,0,0.3-0.1,0.4-0.2
		c0.1-0.1,0.1-0.2,0.1-0.3c0-0.1,0-0.3-0.1-0.4C17.9,52.6,17.6,52.6,17.4,52.8z"/>
	<path class="st0" d="M20.1,52.8c-0.1-0.1-0.4-0.2-0.5-0.1c-0.1,0-0.1,0.1-0.2,0.1c-0.1,0-0.1,0.1-0.1,0.2c0,0.1,0,0.1,0,0.2
		c0,0.1,0.1,0.3,0.2,0.3c0,0.1,0.1,0.1,0.2,0.1c0.1,0,0.1,0,0.2,0c0.1,0,0.3-0.1,0.4-0.2c0.1-0.1,0.1-0.2,0.1-0.3c0-0.1,0-0.1,0-0.2
		C20.2,52.9,20.1,52.8,20.1,52.8z"/>
	<path class="st0" d="M22.1,52.8c-0.2-0.2-0.5-0.2-0.7,0c-0.1,0-0.1,0.1-0.1,0.2c0,0.1,0,0.1,0,0.2c0,0.1,0.1,0.3,0.2,0.3
		c0.1,0.1,0.2,0.2,0.3,0.2c0.1,0,0.3-0.1,0.4-0.2c0.1-0.1,0.1-0.2,0.1-0.3c0-0.1,0-0.1,0-0.2C22.2,52.9,22.1,52.8,22.1,52.8z"/>
	<path class="st0" d="M23.5,52.7c-0.1,0-0.1,0.1-0.2,0.1c-0.1,0.1-0.2,0.2-0.2,0.4c0,0.1,0.1,0.3,0.2,0.3c0,0.1,0.1,0.1,0.2,0.1
		c0.1,0,0.1,0,0.2,0c0.1,0,0.3-0.1,0.4-0.2c0.1-0.1,0.1-0.2,0.1-0.3c0-0.1,0-0.3-0.1-0.4C23.9,52.7,23.7,52.6,23.5,52.7z"/>
	<path class="st0" d="M25.5,52.7c-0.1,0-0.1,0.1-0.2,0.1c-0.1,0.1-0.2,0.2-0.2,0.4c0,0.1,0.1,0.3,0.2,0.3c0,0.1,0.1,0.1,0.2,0.1
		c0.1,0,0.1,0,0.2,0c0.1,0,0.3-0.1,0.4-0.2c0.1-0.1,0.1-0.2,0.1-0.3c0-0.1,0-0.3-0.1-0.4C25.9,52.7,25.7,52.6,25.5,52.7z"/>
	<path class="st0" d="M28.1,52.8c-0.1-0.1-0.4-0.2-0.6-0.1c-0.1,0-0.1,0.1-0.2,0.1c-0.1,0-0.1,0.1-0.1,0.2c0,0.1,0,0.1,0,0.2
		c0,0.1,0.1,0.3,0.2,0.4c0,0,0.1,0.1,0.2,0.1c0.1,0,0.1,0,0.2,0c0.1,0,0.3-0.1,0.4-0.1c0.1-0.1,0.1-0.2,0.1-0.4c0-0.1,0-0.1,0-0.2
		C28.2,52.9,28.1,52.8,28.1,52.8z"/>
	<path class="st0" d="M30.1,52.8c-0.1-0.1-0.1-0.1-0.2-0.1c-0.2-0.1-0.4,0-0.5,0.1c-0.1,0-0.1,0.1-0.1,0.2c0,0.1,0,0.1,0,0.2
		c0,0.1,0.1,0.3,0.2,0.3c0,0.1,0.1,0.1,0.2,0.1c0.1,0,0.1,0,0.2,0c0.1,0,0.3-0.1,0.4-0.2c0.1-0.1,0.1-0.2,0.1-0.3c0-0.1,0-0.1,0-0.2
		C30.2,52.9,30.1,52.8,30.1,52.8z"/>
	<path class="st0" d="M31.4,52.8c-0.1,0.1-0.2,0.2-0.2,0.4c0,0.1,0.1,0.3,0.2,0.4c0.1,0.1,0.2,0.1,0.3,0.1c0.1,0,0.3-0.1,0.4-0.1
		c0.1-0.1,0.1-0.2,0.1-0.4c0-0.1,0-0.3-0.1-0.4C31.9,52.6,31.6,52.6,31.4,52.8z"/>
	<path class="st0" d="M33.4,52.8c-0.1,0.1-0.2,0.2-0.2,0.4c0,0.1,0.1,0.3,0.2,0.4c0.1,0.1,0.2,0.1,0.3,0.1c0.1,0,0.3-0.1,0.4-0.1
		c0.1-0.1,0.1-0.2,0.1-0.4c0-0.1,0-0.3-0.1-0.4C33.9,52.6,33.6,52.6,33.4,52.8z"/>
	<path class="st0" d="M35.4,52.8c-0.1,0.1-0.2,0.2-0.2,0.4c0,0.1,0.1,0.3,0.2,0.4c0.1,0.1,0.2,0.1,0.3,0.1c0.1,0,0.3-0.1,0.4-0.1
		c0.1-0.1,0.1-0.2,0.1-0.4c0-0.1,0-0.3-0.1-0.4C35.9,52.6,35.6,52.6,35.4,52.8z"/>
	<path class="st0" d="M37.4,52.8c-0.1,0.1-0.2,0.2-0.2,0.4c0,0.1,0.1,0.3,0.2,0.4c0.1,0.1,0.2,0.1,0.3,0.1c0.1,0,0.3-0.1,0.4-0.1
		c0.1-0.1,0.1-0.2,0.1-0.4c0-0.1,0-0.3-0.1-0.4C37.9,52.6,37.6,52.6,37.4,52.8z"/>
	<path class="st0" d="M39.4,52.8c-0.1,0.1-0.2,0.2-0.2,0.4c0,0.1,0.1,0.3,0.2,0.3c0.1,0.1,0.2,0.2,0.3,0.2c0.1,0,0.3-0.1,0.4-0.2
		c0.1-0.1,0.1-0.2,0.1-0.3c0-0.1,0-0.3-0.1-0.4C39.9,52.6,39.6,52.6,39.4,52.8z"/>
	<path class="st0" d="M41.4,52.8c-0.1,0.1-0.2,0.2-0.2,0.4c0,0.1,0.1,0.3,0.2,0.4c0.1,0.1,0.2,0.1,0.3,0.1c0.1,0,0.3-0.1,0.4-0.1
		c0.1-0.1,0.1-0.2,0.1-0.4c0-0.1,0-0.3-0.1-0.4C41.9,52.6,41.6,52.6,41.4,52.8z"/>
	<path class="st0" d="M43.4,52.8c-0.1,0.1-0.2,0.2-0.2,0.4c0,0.1,0.1,0.3,0.2,0.4c0.1,0.1,0.2,0.1,0.3,0.1c0.1,0,0.3-0.1,0.4-0.1
		c0.1-0.1,0.1-0.2,0.1-0.4c0-0.1,0-0.3-0.1-0.4C43.9,52.6,43.6,52.6,43.4,52.8z"/>
	<path class="st0" d="M45.4,52.8c-0.1,0.1-0.2,0.2-0.2,0.4c0,0.1,0.1,0.3,0.2,0.3c0.1,0.1,0.2,0.2,0.3,0.2c0.1,0,0.3-0.1,0.4-0.2
		c0.1-0.1,0.1-0.2,0.1-0.3c0-0.1,0-0.3-0.1-0.4C45.9,52.6,45.6,52.6,45.4,52.8z"/>
	<path class="st0" d="M47.9,52.7c-0.2-0.1-0.4,0-0.5,0.1c-0.1,0.1-0.2,0.2-0.2,0.4c0,0.1,0.1,0.3,0.2,0.3c0.1,0.1,0.2,0.2,0.3,0.2
		c0.1,0,0.1,0,0.2,0c0.1,0,0.1-0.1,0.2-0.1c0.1-0.1,0.1-0.2,0.1-0.3c0-0.1,0-0.3-0.1-0.4C48,52.7,48,52.7,47.9,52.7z"/>
	<path class="st0" d="M49.5,52.7c-0.1,0-0.1,0.1-0.2,0.1c-0.1,0.1-0.2,0.2-0.2,0.4c0,0.1,0.1,0.3,0.2,0.3c0,0.1,0.1,0.1,0.2,0.1
		c0.1,0,0.1,0,0.2,0c0.1,0,0.3-0.1,0.4-0.2c0.1-0.1,0.1-0.2,0.1-0.3c0-0.1,0-0.3-0.1-0.4C49.9,52.7,49.7,52.6,49.5,52.7z"/>
	<path class="st0" d="M51.9,52.7c-0.2-0.1-0.4,0-0.5,0.1c-0.1,0.1-0.2,0.2-0.2,0.4c0,0.1,0.1,0.3,0.2,0.4c0.1,0.1,0.2,0.1,0.3,0.1
		c0.1,0,0.3-0.1,0.4-0.1c0.1-0.1,0.1-0.2,0.1-0.4c0-0.1,0-0.3-0.1-0.4C52,52.7,52,52.7,51.9,52.7z"/>
	<path class="st0" d="M54.1,52.8c-0.2-0.2-0.5-0.2-0.7,0c-0.1,0-0.1,0.1-0.1,0.2c0,0.1,0,0.1,0,0.2c0,0.1,0.1,0.3,0.2,0.3
		c0.1,0.1,0.2,0.2,0.3,0.2c0.1,0,0.3-0.1,0.4-0.2c0.1-0.1,0.1-0.2,0.1-0.3c0-0.1,0-0.1,0-0.2C54.2,52.9,54.1,52.8,54.1,52.8z"/>
	<path class="st0" d="M55.4,52.8c-0.1,0.1-0.2,0.2-0.2,0.4c0,0.1,0.1,0.3,0.2,0.3c0.1,0.1,0.2,0.2,0.3,0.2c0.1,0,0.3-0.1,0.4-0.2
		c0.1-0.1,0.1-0.2,0.1-0.3c0-0.1,0-0.3-0.1-0.4C55.9,52.6,55.6,52.6,55.4,52.8z"/>
	<path class="st0" d="M57.4,52.8c-0.1,0.1-0.2,0.2-0.2,0.4c0,0.1,0.1,0.3,0.2,0.4c0.1,0.1,0.2,0.1,0.3,0.1c0.1,0,0.1,0,0.2,0
		c0.1,0,0.1-0.1,0.2-0.1c0.1-0.1,0.1-0.2,0.1-0.4c0-0.1,0-0.3-0.1-0.4C57.9,52.6,57.6,52.6,57.4,52.8z"/>
	<path class="st0" d="M59.9,52.7c-0.2-0.1-0.4,0-0.5,0.1c-0.1,0.1-0.2,0.2-0.2,0.4c0,0.1,0,0.1,0,0.2c0,0.1,0.1,0.1,0.1,0.2
		c0.1,0.1,0.2,0.1,0.3,0.1c0.1,0,0.1,0,0.2,0c0.1,0,0.1-0.1,0.2-0.1c0.1-0.1,0.1-0.1,0.1-0.2c0-0.1,0-0.1,0-0.2c0-0.1,0-0.3-0.1-0.4
		C60,52.7,60,52.7,59.9,52.7z"/>
	<path class="st0" d="M61.9,52.7c-0.2-0.1-0.4,0-0.5,0.1c-0.1,0.1-0.2,0.2-0.2,0.4c0,0.1,0,0.1,0,0.2c0,0.1,0.1,0.1,0.1,0.2
		c0.1,0.1,0.2,0.1,0.3,0.1c0.1,0,0.1,0,0.2,0c0.1,0,0.1-0.1,0.2-0.1c0.1-0.1,0.1-0.1,0.1-0.2c0-0.1,0-0.1,0-0.2c0-0.1,0-0.3-0.1-0.4
		C62,52.7,62,52.7,61.9,52.7z"/>
	<path d="M42.3,36.7c1.9,0,3.5-1.6,3.5-3.5s-1.6-3.5-3.5-3.5s-3.5,1.6-3.5,3.5S40.3,36.7,42.3,36.7z M42.3,30.7
		c1.4,0,2.5,1.1,2.5,2.5c0,1.4-1.1,2.5-2.5,2.5s-2.5-1.1-2.5-2.5C39.8,31.8,40.9,30.7,42.3,30.7z"/>
	<path class="st1" d="M55.1,37.4c-1.4-1.4-3.6-1.4-4.9,0c-1.4,1.4-1.4,3.6,0,4.9c0.7,0.7,1.5,1,2.5,1c0.9,0,1.8-0.4,2.5-1
		s1-1.5,1-2.5C56.1,39,55.8,38.1,55.1,37.4z M54.4,41.7c-0.9,0.9-2.6,0.9-3.5,0c-1-1-1-2.6,0-3.5c0.5-0.5,1.1-0.7,1.8-0.7
		s1.3,0.2,1.8,0.7c0.5,0.5,0.7,1.1,0.7,1.8C55.1,40.6,54.9,41.2,54.4,41.7z"/>
	<path d="M47.2,43.2l-6.4-2.7c-0.3-0.8-1.7-3.9-2.6-6.4c-0.4-0.9-1-1.5-1.9-1.9L26.1,28l-1.8-0.7l-2.5-6l3.4-8.3
		c0.3-0.6,0.3-1.3,0-1.9c-0.3-0.6-0.7-1.1-1.4-1.3c-0.6-0.3-1.3-0.3-1.9,0c-0.6,0.3-1.1,0.7-1.4,1.4l-3.8,9.2c0,0,0,0,0,0
		c-0.3,0.6-0.3,1.3,0,1.9l1.5,3.7l-2.7-1.1l-3.4-8.3c-0.5-1.3-2-1.9-3.3-1.4c-0.6,0.3-1.1,0.7-1.4,1.4c-0.3,0.6-0.3,1.3,0,1.9
		l3.8,9.2c0.3,0.6,0.7,1.1,1.4,1.4l8.4,3.5c0.5,0.9,1.3,1.6,2.3,2.1c0,0,0,0,0,0c0,0,0,0,0,0l10.2,4.2c0.4,0.2,0.8,0.2,1.2,0.3
		l1.9,4.5c0.3,0.6,0.7,1.1,1.4,1.4l7.4,3.1c0.3,0.1,0.6,0.2,1,0.2c1,0,1.9-0.6,2.3-1.5c0.3-0.6,0.3-1.3,0-1.9
		C48.3,44,47.8,43.5,47.2,43.2z M45.7,46.9l-7.4-3.1c-0.4-0.2-0.7-0.4-0.8-0.8l-1.7-4.2l-0.2-0.5l-0.2-0.5l-0.6-1.3
		c-0.1-0.1-0.2-0.2-0.3-0.3s-0.3-0.1-0.4,0c-0.3,0.1-0.4,0.4-0.3,0.7l0.4,0.9c-0.1,0-0.2-0.1-0.3-0.1l-9.7-4l0.9-2.3l0-0.1l0.9-2.3
		l9.7,4c0,0,0,0,0,0c0.6,0.3,1.1,0.7,1.3,1.3c0,0,0,0,0,0c0,0,0,0,0,0c0.2,0.5,0.4,1.1,0.6,1.6c0.1,0.2,0.2,0.5,0.3,0.7
		c0.9,2.2,1.8,4.3,1.8,4.3c0.1,0.1,0.1,0.2,0.3,0.3l6.6,2.7c0.4,0.2,0.7,0.4,0.8,0.8s0.2,0.8,0,1.1C47.3,46.9,46.4,47.2,45.7,46.9z
		 M13.1,28C13.1,28,13.1,28,13.1,28c-0.4-0.2-0.7-0.4-0.8-0.8L8.4,18c-0.2-0.4-0.2-0.8,0-1.1c0.2-0.4,0.4-0.7,0.8-0.8
		c0.2-0.1,0.4-0.1,0.6-0.1c0.2,0,0.4,0,0.6,0.1c0.4,0.2,0.7,0.4,0.8,0.8l3.5,8.5c0.1,0.1,0.1,0.2,0.3,0.3l3.8,1.6l1.6,3.9L13.1,28z
		 M22.2,32.3c-0.2-0.2-0.3-0.5-0.5-0.7c0-0.1-0.1-0.1-0.1-0.2l-1.5-3.7L19.8,27l-0.3-0.7l-1.9-4.6c-0.2-0.4-0.2-0.8,0-1.1l3.8-9.2
		c0.2-0.4,0.4-0.7,0.8-0.8c0.4-0.2,0.8-0.1,1.1,0c0.4,0.2,0.7,0.4,0.8,0.8c0.2,0.4,0.2,0.8,0,1.1L20.8,21c0,0.1,0,0.1,0,0.2
		c0,0.1,0,0.1,0,0.2l2.6,6.4c0.1,0.1,0.1,0.2,0.3,0.3c0,0,0,0,0,0l0.2,0.1l1.4,0.6L25,29.2l-0.3,0.6L24.3,31l-0.1,0.1l-0.5,1.2
		l-0.3,0.6l-0.2,0.4c-0.2-0.1-0.4-0.2-0.5-0.4C22.6,32.8,22.4,32.6,22.2,32.3z"/>
</g>
</svg>
