<?xml version="1.0" encoding="utf-8"?>
<!-- Generator: Adobe Illustrator 25.2.1, SVG Export Plug-In . SVG Version: 6.00 Build 0)  -->
<svg version="1.1" id="Layer_1" xmlns="http://www.w3.org/2000/svg" xmlns:xlink="http://www.w3.org/1999/xlink" x="0px" y="0px"
	 viewBox="0 0 63 63" style="enable-background:new 0 0 63 63;" xml:space="preserve">
<style type="text/css">
	.st0{fill:#EE2B2F;}
</style>
<g id="Boxing">
	<path d="M25.4,16.5c1.9,0,3.5-1.6,3.5-3.5s-1.6-3.5-3.5-3.5s-3.5,1.6-3.5,3.5S23.4,16.5,25.4,16.5z M25.4,10.5
		c1.4,0,2.5,1.1,2.5,2.5s-1.1,2.5-2.5,2.5s-2.5-1.1-2.5-2.5S24,10.5,25.4,10.5z"/>
	<path d="M42.9,22C42.9,22,42.9,22,42.9,22v-0.5h-8.2c0,0,0,0,0,0c-0.1,0.1-0.1,0.2-0.2,0.3L34.2,22l-0.5,0.5h9.7
		C43.1,22.5,42.9,22.3,42.9,22z"/>
	<path d="M35.8,18.5h7.1V18v0c0-0.3,0.2-0.5,0.5-0.5h-7.8c0,0.2,0.1,0.3,0.1,0.5C35.7,18.2,35.8,18.3,35.8,18.5z"/>
	<path class="st0" d="M45.4,17.5h-2c-0.3,0-0.5,0.2-0.5,0.5v0v0.5v3V22c0,0,0,0,0,0c0,0.3,0.2,0.5,0.5,0.5h1.6c0.2,1.1,1.2,2,2.4,2
		c1.4,0,2.5-1.1,2.5-2.5C49.9,19.5,47.9,17.5,45.4,17.5z M45.9,22.4c0-0.1-0.1-0.3-0.1-0.4c0,0,0,0,0-0.1c0-0.2-0.2-0.4-0.5-0.4
		h-1.5v-3h1.5c0.1,0,0.2,0,0.3,0c0.5,0,1,0.2,1.4,0.4c0.3,0.2,0.5,0.3,0.8,0.5c0.6,0.6,1,1.5,1,2.5c0,0.8-0.7,1.5-1.5,1.5
		C46.7,23.5,46.1,23.1,45.9,22.4z"/>
	<path d="M32.3,23.2L32.3,23.2L32,22.8l-2.1,2.1l-0.5,0.5l-0.5,0.5l-0.8,0.8c-0.6,0.6-1.5,0.6-2.1,0l-4.1-4.1l-0.5-0.5L21.3,22
		l-0.9-0.9l0,0c0,0,0,0,0,0c0,0,0,0,0,0c0,0,0,0,0,0c-0.1-0.1-0.2-0.3-0.3-0.5c0,0,0,0,0,0c-0.1-0.1-0.1-0.3-0.1-0.5c0,0,0,0,0-0.1
		c0-0.8,0.7-1.5,1.5-1.5h9.2c-0.1-0.2-0.2-0.3-0.2-0.5c-0.1-0.2-0.1-0.3-0.1-0.5h-8.8c-1.4,0-2.5,1.1-2.5,2.5c0,0.2,0,0.3,0,0.5
		c0,0.1,0,0.1,0,0.1c0,0.1,0.1,0.2,0.1,0.3c0,0.1,0,0.1,0.1,0.2c0,0.1,0.1,0.2,0.1,0.3c0,0,0.1,0.1,0.1,0.1c0.1,0.1,0.1,0.2,0.2,0.2
		c0,0,0,0,0.1,0.1c0,0,0,0,0,0l1.2,1.2v9v11l-6.3,6.3c-1,1-1,2.6,0,3.5c0.5,0.5,1.1,0.7,1.8,0.7c0.6,0,1.3-0.2,1.8-0.7l7.1-7.1
		c0.5-0.5,0.7-1.1,0.7-1.8v-7.5h0.5l5.6,5.6v9c0,1.4,1.1,2.5,2.5,2.5s2.5-1.1,2.5-2.5v-10c0-0.7-0.3-1.3-0.7-1.8L29.9,33v-1v-5.7
		l3.2-3.2c-0.1,0.1-0.2,0.1-0.3,0.1C32.6,23.3,32.4,23.3,32.3,23.2z M35.9,51.1c0,0.8-0.7,1.5-1.5,1.5s-1.5-0.7-1.5-1.5v-9.2
		c0-0.1-0.1-0.3-0.1-0.4l-5.9-5.9c-0.1-0.1-0.2-0.1-0.4-0.1h-1.2c-0.3,0-0.5,0.2-0.5,0.5v8c0,0.4-0.2,0.8-0.4,1.1l-7.1,7.1
		c-0.6,0.6-1.5,0.6-2.1,0c-0.6-0.6-0.6-1.5,0-2.1l6.5-6.5c0.1-0.1,0.1-0.2,0.1-0.4V32.5h7v0.7c0,0.1,0.1,0.3,0.1,0.4l6.5,6.5
		c0.3,0.3,0.4,0.7,0.4,1.1V51.1z M28.9,31.5h-7V24l3.4,3.4c0.5,0.5,1.1,0.7,1.8,0.7c0.6,0,1.3-0.2,1.8-0.7l0.1-0.1V31.5z"/>
	<path d="M25.3,20.4c-0.2-0.2-0.5-0.2-0.7,0c-0.1,0.1-0.1,0.2-0.1,0.3c0,0.1,0,0.3,0.1,0.4l2.1,2.1c0.2,0.2,0.5,0.2,0.7,0l2.5-2.5
		l-0.4-0.4l0,0c-0.1-0.1-0.1-0.2-0.1-0.4c0-0.1,0.1-0.2,0.1-0.3L27,22.1L25.3,20.4z"/>
	<path class="st0" d="M34.5,21.8c0.1-0.1,0.1-0.2,0.2-0.3c0,0,0,0,0,0c0,0,0.1-0.1,0.1-0.1c0.7-0.8,1-1.9,1-2.9c0-0.2,0-0.3,0-0.5
		c0-0.2-0.1-0.3-0.1-0.5c-0.2-0.8-0.6-1.5-1.2-2.1c-1-1-2.6-1-3.5,0c-0.6,0.6-0.8,1.4-0.7,2.1c0,0.2,0.1,0.3,0.1,0.5
		c0.1,0.2,0.1,0.3,0.2,0.5c0,0,0,0,0,0.1l-1.1,1.1c0,0,0,0,0,0c-0.1,0.1-0.1,0.2-0.1,0.3c0,0.1,0.1,0.3,0.1,0.4l0,0l0.4,0.4l0.8,0.8
		l0.5,0.5l0.5,0.5l0.3,0.3l0.4,0.4l0,0c0.1,0.1,0.2,0.1,0.4,0.1c0.1,0,0.2,0,0.3-0.1c0,0,0,0,0,0l0.7-0.7l0.5-0.5L34.5,21.8z
		 M32.1,21.5L30.6,20l0,0l1.1-1.1c0.1-0.1,0.1-0.2,0.1-0.4c0,0,0-0.1,0-0.1c0-0.1,0-0.1-0.1-0.2c0,0,0,0,0-0.1
		c-0.1-0.1-0.1-0.2-0.2-0.2c0,0-0.1-0.1-0.1-0.1c-0.1-0.1-0.1-0.2-0.1-0.4c-0.1-0.5,0-1,0.4-1.4c0.6-0.6,1.5-0.6,2.1,0
		c0.4,0.4,0.7,0.9,0.8,1.4c0.1,0.2,0.1,0.3,0.1,0.5c0,0.2,0,0.3,0,0.5c0,0,0,0.1,0,0.1c0,0.3-0.1,0.6-0.1,0.9
		c-0.2,0.6-0.4,1.1-0.9,1.5l-0.4,0.4L32.8,22l-0.1,0.1l0,0L32.6,22L32.1,21.5z"/>
</g>
</svg>
