<?xml version="1.0" encoding="utf-8"?>
<!-- Generator: Adobe Illustrator 25.2.1, SVG Export Plug-In . SVG Version: 6.00 Build 0)  -->
<svg version="1.1" id="Layer_1" xmlns="http://www.w3.org/2000/svg" xmlns:xlink="http://www.w3.org/1999/xlink" x="0px" y="0px"
	 viewBox="0 0 63 63" style="enable-background:new 0 0 63 63;" xml:space="preserve">
<style type="text/css">
	.st0{fill:#00A64F;}
</style>
<g id="Cycling_road">
	<path d="M51.1,23c1.9,0,3.5-1.6,3.5-3.5S53,16,51.1,16s-3.5,1.6-3.5,3.5S49.1,23,51.1,23z M51.1,17c1.4,0,2.5,1.1,2.5,2.5
		S52.4,22,51.1,22s-2.5-1.1-2.5-2.5S49.7,17,51.1,17z"/>
	<path class="st0" d="M48.2,28.1l1.2,1.2c4.1,1,7.2,4.8,7.2,9.2c0,5.2-4.3,9.5-9.5,9.5s-9.5-4.3-9.5-9.5c0-3.8,2.2-7,5.4-8.6
		l-0.7-0.7c0,0,0,0-0.1-0.1c-3.4,1.8-5.7,5.3-5.7,9.3c0,5.8,4.7,10.5,10.5,10.5s10.5-4.7,10.5-10.5C57.6,33.1,53.4,28.6,48.2,28.1z"
		/>
	<path class="st0" d="M15.9,28c-5.8,0-10.5,4.7-10.5,10.5S10.2,49,15.9,49s10.5-4.7,10.5-10.5S21.7,28,15.9,28z M15.9,48
		c-5.2,0-9.5-4.3-9.5-9.5s4.3-9.5,9.5-9.5s9.5,4.3,9.5,9.5S21.2,48,15.9,48z"/>
	<path d="M43,30l4.9,4.9c0.5,0.5,1.2,0.8,1.9,0.8c0.6,0,1.1-0.2,1.6-0.6c0.6-0.5,0.9-1.2,0.9-1.9c0-0.7-0.3-1.3-0.7-1.8l-2.1-2.1
		l-1.2-1.2l-1.6-1.6v-7c0-1.9-1.6-3.5-3.5-3.5h-11c-1,0-1.8,0.4-2.5,1l-1.4,1.4c0,0,0,0.1-0.1,0.1c-0.1,0.1-0.2,0.2-0.2,0.3
		c0,0.1-0.1,0.1-0.1,0.2c-0.1,0.2-0.2,0.4-0.2,0.6c0,0,0,0,0,0c0,0.2-0.1,0.3-0.1,0.5v20c0,1.4,1.1,2.5,2.5,2.5s2.5-1.1,2.5-2.5
		v-3.4l7-7c0,0,0,0,0,0c0.5-0.5,0.7-1.1,0.7-1.8c0-0.7-0.3-1.3-0.7-1.8L36.3,23h5.3v4.5c0,0.6,0.2,1.2,0.7,1.7c0,0,0,0,0.1,0.1
		L43,30z M28.4,22.3l3,3v5.5l-2.6,2.6c-0.2,0.2-0.3,0.4-0.4,0.6V22.3z M31.4,40.2c0,0.8-0.7,1.5-1.5,1.5s-1.5-0.7-1.5-1.5v-4
		c0.1,0.2,0.3,0.4,0.4,0.6c0.5,0.5,1.1,0.7,1.8,0.7c0.3,0,0.5-0.1,0.8-0.1V40.2z M38.8,27c0.3,0.3,0.4,0.7,0.4,1.1
		c0,0.4-0.2,0.8-0.4,1.1l-6.3,6.3l-0.7,0.7c-0.1,0.1-0.2,0.1-0.3,0.2c-0.6,0.4-1.3,0.3-1.9-0.2c-0.3-0.3-0.4-0.7-0.4-1.1
		c0-0.4,0.2-0.8,0.4-1.1l1.9-1.8l1-1l2.8-2.8c0.1-0.1,0.1-0.2,0.1-0.4c0-0.1-0.1-0.3-0.1-0.4l-2.8-2.8l-1-1L29.6,22l0,0l-0.7-0.7
		c-0.3-0.3-0.4-0.7-0.4-1.1c0-0.1,0-0.2,0-0.3c0,0,0,0,0,0c0-0.1,0.1-0.2,0.1-0.3c0,0,0,0,0,0c0.1-0.1,0.2-0.3,0.3-0.4
		c0,0,0,0,0-0.1l0.2-0.2l0.8-0.8l0,0l1,1l0.1,0.1l1.4,1.4l1.4,1.4l0.5,0.5l0.5,0.5L38.8,27z M32.4,29.8v-3.5l1.7,1.7L32.4,29.8z
		 M42.1,20c-0.3,0-0.5,0.2-0.5,0.5V22h-6.3l-3.5-3.5c0,0,0,0-0.1-0.1l-1-1c0.4-0.3,0.9-0.4,1.4-0.4h11c1.4,0,2.5,1.1,2.5,2.5v0.1
		v0.2v6.8c0,0.1,0.1,0.3,0.1,0.4l1,1l1,1l3.1,3.1c0.3,0.3,0.4,0.7,0.4,1.1c0,0.4-0.2,0.9-0.5,1.1c-0.6,0.5-1.5,0.4-2.1-0.2L44,29.6
		l-0.8-0.8L43,28.6c-0.3-0.3-0.4-0.7-0.4-1.1v-5v-0.4v-1.6c0,0,0-0.1,0-0.1C42.5,20.2,42.3,20,42.1,20z"/>
</g>
</svg>
