<?xml version="1.0" encoding="utf-8"?>
<!-- Generator: Adobe Illustrator 25.2.1, SVG Export Plug-In . SVG Version: 6.00 Build 0)  -->
<svg version="1.1" id="Layer_1" xmlns="http://www.w3.org/2000/svg" xmlns:xlink="http://www.w3.org/1999/xlink" x="0px" y="0px"
	 viewBox="0 0 63 63" style="enable-background:new 0 0 63 63;" xml:space="preserve">
<style type="text/css">
	.st0{fill:#FCB019;}
</style>
<g id="Football">
	<path d="M31,16c1.9,0,3.5-1.6,3.5-3.5S33,9,31,9s-3.5,1.6-3.5,3.5S29.1,16,31,16z M31,10c1.4,0,2.5,1.1,2.5,2.5S32.4,15,31,15
		s-2.5-1.1-2.5-2.5S29.7,10,31,10z"/>
	<path d="M50.9,17H27c-0.7,0-1.3,0.3-1.8,0.7L14,29c-0.9,0.9-1,2.3-0.3,3.3c0.4,0.6,1.1,1,1.8,1c0.1,0,0.1,0,0.2,0
		c0.7,0,1.3-0.3,1.8-0.7l9-9v8v1l-5.6,5.6h-8.9c-1.3,0-2.4,0.9-2.6,2.1c-0.1,0.7,0.1,1.5,0.6,2c0.5,0.6,1.2,0.9,1.9,0.9h10
		c0.7,0,1.3-0.3,1.8-0.7l6.3-6.3h1.3l3,7.2v9.4c0,1.3,0.9,2.4,2.1,2.6c0.1,0,0.3,0,0.4,0c0.6,0,1.2-0.2,1.6-0.6
		c0.6-0.5,0.9-1.2,0.9-1.9v-10c0-0.3-0.1-0.7-0.2-1L35.5,33v-1.5V22H51c0.7,0,1.4-0.3,1.9-0.9c0.5-0.6,0.7-1.3,0.6-2
		C53.3,17.9,52.2,17,50.9,17z M38.2,42.2C38.2,42.2,38.2,42.2,38.2,42.2L38.2,42.2c0.1,0.2,0.1,0.4,0.1,0.6v10
		c0,0.4-0.2,0.9-0.5,1.1c-0.3,0.3-0.8,0.4-1.2,0.3c-0.7-0.1-1.2-0.8-1.2-1.6v-9.5c0-0.1,0-0.1,0-0.2l-3.2-7.6
		c-0.1-0.2-0.3-0.3-0.5-0.3h-1.8c-0.1,0-0.3,0.1-0.4,0.1L23,41.7c-0.3,0.3-0.7,0.4-1.1,0.4H12c-0.4,0-0.9-0.2-1.1-0.5
		c-0.3-0.3-0.4-0.8-0.3-1.2c0.1-0.7,0.8-1.2,1.6-1.2h9.1c0.1,0,0.3-0.1,0.4-0.1l5.9-5.9c0.1-0.1,0.1-0.2,0.1-0.4V32h7v1.1v0
		c0,0.1,0,0.1,0,0.2L38.2,42.2z M52.2,20.5C51.9,20.8,51.5,21,51,21H35c-0.3,0-0.5,0.2-0.5,0.5V31h-7v-8.7c0-0.2-0.1-0.4-0.3-0.5
		c-0.2-0.1-0.4,0-0.5,0.1l-9.9,9.9c-0.3,0.3-0.7,0.5-1.2,0.4c-0.4,0-0.8-0.3-1.1-0.6c-0.4-0.6-0.3-1.4,0.2-2L26,18.5
		c0.3-0.3,0.7-0.4,1.1-0.4h23.9c0.8,0,1.5,0.5,1.6,1.2C52.6,19.7,52.5,20.2,52.2,20.5z"/>
	<path class="st0" d="M22,48.3c-1.9,0-3.5,1.6-3.5,3.5s1.6,3.5,3.5,3.5s3.5-1.6,3.5-3.5S23.9,48.3,22,48.3z M22,54.3
		c-1.4,0-2.5-1.1-2.5-2.5s1.1-2.5,2.5-2.5s2.5,1.1,2.5,2.5S23.3,54.3,22,54.3z"/>
</g>
</svg>
