<?xml version="1.0" encoding="utf-8"?>
<!-- Generator: Adobe Illustrator 25.2.1, SVG Export Plug-In . SVG Version: 6.00 Build 0)  -->
<svg version="1.1" id="Layer_1" xmlns="http://www.w3.org/2000/svg" xmlns:xlink="http://www.w3.org/1999/xlink" x="0px" y="0px"
	 viewBox="0 0 63 63" style="enable-background:new 0 0 63 63;" xml:space="preserve">
<style type="text/css">
	.st0{fill:#FCB019;}
</style>
<g id="Gymnastics_artistic">
	<path d="M21.7,44.2c0.9,0,1.8-0.4,2.5-1s1-1.5,1-2.5c0-0.9-0.4-1.8-1-2.5c-1.4-1.4-3.6-1.4-4.9,0c-1.4,1.4-1.4,3.6,0,4.9
		C19.9,43.8,20.8,44.2,21.7,44.2z M20,38.9c0.5-0.5,1.1-0.7,1.8-0.7s1.3,0.2,1.8,0.7c0.5,0.5,0.7,1.1,0.7,1.8c0,0.7-0.3,1.3-0.7,1.8
		c-0.9,0.9-2.6,0.9-3.5,0C19,41.5,19,39.9,20,38.9z"/>
	<path d="M38.3,30.4l15.6-15.6c1-1,1-2.6,0-3.5c-1-1-2.6-1-3.5,0L38,23.7l-0.3-0.3v-19c0-1.4-1.1-2.5-2.5-2.5S32.7,3,32.7,4.4v19
		L32,24l-6.7,6.7l-11-11c-1-1-2.6-1-3.5,0c-1,1-1,2.6,0,3.5L27,39.6V54h1V39.4c0-0.1-0.1-0.3-0.1-0.4L11.5,22.6
		c-0.6-0.6-0.6-1.5,0-2.1c0.6-0.6,1.5-0.6,2.1,0l11.3,11.3c0.2,0.2,0.5,0.2,0.7,0l6.7-6.7l4.9,4.9l-6.1,6.1
		c-0.1,0.1-0.1,0.2-0.1,0.4V54h1V36.7L38.3,30.4z M33,24.4l0.5-0.5c0.1-0.1,0.1-0.2,0.1-0.4V4.4c0-0.8,0.7-1.5,1.5-1.5
		s1.5,0.7,1.5,1.5v19.2c0,0.1,0.1,0.3,0.1,0.4l0.8,0.8c0.1,0.1,0.2,0.1,0.4,0.1s0.3-0.1,0.4-0.1L51.1,12c0.6-0.6,1.5-0.6,2.1,0
		c0.6,0.6,0.6,1.5,0,2.1L38,29.3L33,24.4z"/>
	<path class="st0" d="M32,54h-1h-3h-1H11.5C9,54,7,56.1,7,58.5V63h1v-4.5c0-1.9,1.6-3.5,3.5-3.5h16h4H63v-1H32z"/>
</g>
</svg>
