<?xml version="1.0" encoding="utf-8"?>
<!-- Generator: Adobe Illustrator 25.2.1, SVG Export Plug-In . SVG Version: 6.00 Build 0)  -->
<svg version="1.1" id="Layer_1" xmlns="http://www.w3.org/2000/svg" xmlns:xlink="http://www.w3.org/1999/xlink" x="0px" y="0px"
	 viewBox="0 0 63 63" style="enable-background:new 0 0 63 63;" xml:space="preserve">
<style type="text/css">
	.st0{fill:#7F7C7C;}
	.st1{fill:#2A76BC;}
</style>
<g id="Swimming">
	<path d="M7.1,25.8c-0.6,0.4-1,1.1-1,1.8C6,28.3,6.3,29,6.8,29.6l0.4-0.3l0,0C7.3,29,7.5,29,7.7,29.1l-0.2-0.2
		c-0.3-0.3-0.5-0.8-0.4-1.2c0-0.4,0.3-0.8,0.6-1.1c0.2-0.2,0.5-0.3,0.8-0.3c0.4,0,0.8,0.2,1.2,0.5l3.7,3.7c0.2-0.1,0.3-0.2,0.4-0.3
		c0.1-0.1,0.3-0.2,0.4-0.3l-3.9-3.9C9.5,25.2,8.1,25.1,7.1,25.8z"/>
	<path d="M42.9,26.8c0.9,0,1.8-0.4,2.5-1c1.4-1.4,1.4-3.6,0-4.9c-1.3-1.3-3.6-1.3-4.9,0c-0.7,0.7-1,1.5-1,2.5s0.4,1.8,1,2.5
		S42,26.8,42.9,26.8z M42.9,20.8c0.7,0,1.3,0.3,1.8,0.7c1,1,1,2.6,0,3.5c-0.9,0.9-2.6,0.9-3.5,0c-0.5-0.5-0.7-1.1-0.7-1.8
		s0.3-1.3,0.7-1.8S42.2,20.8,42.9,20.8z"/>
	<path d="M39.7,26.5l-5.6-5.6c-0.5-0.5-1.1-0.7-1.8-0.7h-8c-0.7,0-1.4,0.3-1.9,0.9c-0.5,0.6-0.7,1.3-0.6,2c0.2,1.2,1.3,2.1,2.6,2.1
		h6.9l1.8,1.8l-7.3,3l-0.7,0.3c0.1,0.1,0.3,0.2,0.4,0.2c0,0,0.1,0,0.2,0.1c0.2,0.1,0.3,0.2,0.5,0.2c0.2,0.1,0.4,0.1,0.6,0.2
		c0,0,0,0,0,0l-0.1-0.3l7.2-3l0.5-0.2l0.5-0.2l1.4-0.6l0,0c0,0,0,0,0.1,0c0.6-0.3,1.3-0.3,1.9,0c0.3,0.1,0.5,0.3,0.8,0.5
		c0,0,0,0,0,0l0.9,0.9l0.2,0.2l0.2,0.2l0.3,0.3l2,2c0.3,0,0.5,0.1,0.8,0.1c0.2,0,0.4,0,0.7-0.1L39.7,26.5
		C39.7,26.5,39.7,26.5,39.7,26.5z M35.9,25.8l-1.8,0.8l-2.2-2.2c-0.1-0.1-0.2-0.1-0.4-0.1h-7.1c-0.8,0-1.5-0.5-1.6-1.3
		c-0.1-0.4,0.1-0.9,0.3-1.2c0.3-0.3,0.7-0.5,1.1-0.5h8c0.4,0,0.8,0.2,1.1,0.4l3.9,3.9c0,0,0,0,0,0c-0.2,0-0.5,0-0.7,0.1
		C36.4,25.6,36.1,25.7,35.9,25.8z"/>
	<path d="M37.6,30.1c-0.1-0.1-0.3-0.2-0.5-0.1C37.1,30,37,30,37,30c0,0,0,0-0.1,0c-0.1,0.1-0.2,0.3-0.1,0.4c0,0.1,0.1,0.2,0.1,0.3
		l0,0c0.1,0,0.2-0.1,0.3-0.1c0.1,0,0.1-0.1,0.2-0.1c0.2-0.1,0.3-0.2,0.4-0.3l0,0L37.6,30.1z"/>
	<path class="st0" d="M8.2,32.6C7,32.1,5.7,32.6,5,33.6c-0.4,0.6-0.5,1.4-0.3,2.1c0.2,0.7,0.7,1.3,1.4,1.5l9.2,3.8
		c0.3,0.1,0.6,0.2,1,0.2c0.3,0,0.6-0.1,1-0.2l11.1-4.6l10-4.1l3.4,3.4c0.5,0.5,1.1,0.7,1.8,0.7h8c0.7,0,1.4-0.3,1.9-0.9
		c0.5-0.6,0.7-1.3,0.6-2c-0.1-0.7-0.6-1.4-1.2-1.7c-0.3,0.1-0.6,0.1-1,0.2c-0.5,0-0.9,0-1.4,0c-0.5-0.1-1-0.3-1.4-0.5h-3.3
		c-0.4,0.2-0.9,0.4-1.4,0.5c-0.2,0-0.4,0-0.6,0.1l0.3,0.3c0.1,0.1,0.2,0.1,0.4,0.1h7.1c0.8,0,1.5,0.5,1.6,1.3
		c0.1,0.4-0.1,0.9-0.3,1.2c-0.3,0.3-0.7,0.5-1.1,0.5h-8c-0.4,0-0.8-0.2-1.1-0.4l-3.2-3.2L39,31.4l-0.4-0.4L38.6,31
		c-0.1,0.1-0.3,0.2-0.4,0.3c-0.1,0.1-0.3,0.1-0.4,0.2c0,0-0.1,0-0.1,0c-0.2,0.1-0.3,0.2-0.5,0.2l-8.6,3.6L28,34.1c0,0,0,0,0-0.1
		l-0.4-1l-0.4-1l0,0c-0.2,0-0.4,0-0.6-0.1c-0.2,0-0.4-0.1-0.6-0.2l0.3,0.7l0.3,0.6l0.1,0.3l0.9,2.1l0.1,0.2l-0.2,0.1l-2.7,1.1
		l-1.2,0.5L17,40.1c-0.4,0.2-0.8,0.2-1.1,0l-9.2-3.8c-0.4-0.2-0.7-0.5-0.9-0.9c-0.1-0.4-0.1-0.9,0.2-1.3c0.3-0.4,0.8-0.7,1.3-0.7
		c0.2,0,0.4,0,0.7,0.1l5,2.1l1.2,0.5l1.9,0.8l0.3,0.1c0.1,0.1,0.3,0.1,0.4,0l0.3-0.1l1.2-0.5l5.1-2.1c0.1-0.1,0.2-0.1,0.3-0.3
		s0.1-0.3,0-0.4c0-0.1-0.1-0.2-0.1-0.2c0-0.2,0-0.3,0-0.5c0-0.2,0.1-0.3,0.1-0.5c0.2-0.3,0.4-0.6,0.8-0.7l0.7-0.3
		c-0.2-0.1-0.3-0.2-0.5-0.3c-0.2-0.1-0.3-0.2-0.5-0.4l-0.1,0c-0.6,0.3-1.1,0.7-1.4,1.4c0,0.1,0,0.2-0.1,0.3h-5.8L15,30.7
		c-0.1,0.1-0.3,0.2-0.4,0.3c-0.1,0.1-0.3,0.2-0.4,0.3l1.9,1.9c0.1,0.1,0.2,0.1,0.4,0.1h5.9c0,0,0,0.1,0,0.1l-6,2.5l-3-1.2l-2.8-2.8
		c-0.3-0.1-0.7-0.2-1-0.3c-0.6-0.2-1.1-0.6-1.6-1l-0.5-0.4l0,0l3.5,3.5L8.2,32.6z"/>
	<path class="st1" d="M0,30.7c1.9,1.8,5.1,1.8,7,0l0.4-0.4l0,0L8,30.7c0.5,0.4,1,0.8,1.6,1c0.3,0.1,0.7,0.2,1,0.3
		c1.2,0.2,2.5,0,3.6-0.6c0.1-0.1,0.3-0.2,0.4-0.3c0.1-0.1,0.3-0.2,0.4-0.3c0,0,0,0,0.1,0l0.5-0.4l0.5,0.4c1.9,1.8,5.1,1.8,7,0
		l0.5-0.4l0.5,0.4c0,0,0,0,0,0c0.1,0.1,0.3,0.2,0.5,0.4c0.2,0.1,0.3,0.2,0.5,0.3c0.3,0.2,0.6,0.3,1,0.4l0,0c0.2,0.1,0.4,0.1,0.6,0.2
		c0.2,0,0.4,0,0.6,0.1l0,0c1.4,0.1,2.8-0.3,3.9-1.3l0.5-0.4l0.5,0.4c1.4,1.3,3.4,1.7,5.2,1.1c0.2-0.1,0.4-0.1,0.5-0.2
		c0,0,0.1,0,0.1,0c0.1-0.1,0.3-0.1,0.4-0.2c0.1-0.1,0.3-0.2,0.4-0.3c0.2-0.1,0.3-0.2,0.5-0.3l0.3-0.3l0,0l0.1-0.1l0,0l0.3,0.3
		l0.1,0.1c0.1,0.1,0.2,0.1,0.2,0.2c0.9,0.8,2.1,1.2,3.3,1.2c0.1,0,0.2,0,0.3,0c0.2,0,0.4,0,0.6-0.1c0.5-0.1,1-0.3,1.4-0.5
		c0.4-0.2,0.8-0.5,1.2-0.8l0.5-0.4l0.5,0.4c0.3,0.3,0.7,0.6,1.2,0.8c0.5,0.2,0.9,0.4,1.4,0.5c0.4,0.1,0.9,0.1,1.4,0
		c0.3,0,0.6-0.1,1-0.2c0.8-0.2,1.5-0.6,2.1-1.2l0.5-0.4l0.5,0.4c0.9,0.9,2.2,1.4,3.5,1.4c1.3,0,2.6-0.5,3.5-1.4V30v-0.7l-0.7,0.6
		c-1.5,1.4-4.2,1.4-5.7,0l-0.8-0.8c-0.2-0.2-0.5-0.2-0.7,0l-0.8,0.8c-1.6,1.5-4.1,1.5-5.7,0l-0.8-0.8c-0.2-0.2-0.5-0.2-0.7,0
		l-0.8,0.8c-0.6,0.6-1.4,0.9-2.2,1c-0.2,0-0.4,0.1-0.7,0.1c-0.3,0-0.5,0-0.8-0.1c-0.8-0.1-1.5-0.5-2.1-1l0,0l-0.4-0.4l-0.1,0
		l-0.3-0.3c0,0,0,0-0.1,0c0,0,0,0,0,0c-0.2-0.1-0.4-0.1-0.6,0c0,0,0,0,0,0l-0.3,0.3l-0.5,0.5c-0.1,0.1-0.3,0.2-0.4,0.3c0,0,0,0,0,0
		c-0.1,0.1-0.3,0.2-0.4,0.3c-0.1,0-0.1,0.1-0.2,0.1c-0.1,0-0.2,0.1-0.3,0.1c-1.4,0.5-3.1,0.2-4.3-0.8l-0.8-0.8
		c-0.2-0.2-0.5-0.2-0.7,0l-0.8,0.8c-1,0.9-2.4,1.3-3.6,1c0,0,0,0,0,0c-0.2,0-0.4-0.1-0.6-0.2c-0.2-0.1-0.3-0.1-0.5-0.2
		c-0.1,0-0.1,0-0.2-0.1c-0.1-0.1-0.3-0.2-0.4-0.2c-0.1-0.1-0.3-0.2-0.4-0.3l-0.8-0.8c-0.2-0.2-0.5-0.2-0.7,0l-0.8,0.8
		c-1.6,1.5-4.1,1.5-5.7,0l-0.8-0.8c-0.2-0.2-0.5-0.2-0.7,0l-0.8,0.8c0,0-0.1,0-0.1,0.1c-0.1,0.1-0.3,0.2-0.4,0.3
		c-0.1,0.1-0.3,0.2-0.4,0.3c-1.5,0.8-3.5,0.6-4.8-0.6l-0.8-0.8c0,0-0.1-0.1-0.2-0.1c-0.2-0.1-0.4,0-0.5,0.1l0,0l-0.4,0.3l-0.4,0.4
		c-1.6,1.5-4.1,1.5-5.7,0L0,29.3V30V30.7z"/>
</g>
</svg>
