<?xml version="1.0" encoding="utf-8"?>
<!-- Generator: Adobe Illustrator 25.2.1, SVG Export Plug-In . SVG Version: 6.00 Build 0)  -->
<svg version="1.1" id="Layer_1" xmlns="http://www.w3.org/2000/svg" xmlns:xlink="http://www.w3.org/1999/xlink" x="0px" y="0px"
	 viewBox="0 0 63 63" style="enable-background:new 0 0 63 63;" xml:space="preserve">
<style type="text/css">
	.st0{fill:#EE2B2F;}
</style>
<g id="Taekwondo">
	<path d="M18.8,17.8c1.4-1.4,1.4-3.6,0-4.9c-1.3-1.3-3.6-1.3-4.9,0c-0.7,0.7-1,1.5-1,2.5c0,0.9,0.4,1.8,1,2.5c0.7,0.7,1.6,1,2.5,1
		C17.2,18.8,18.1,18.4,18.8,17.8z M13.8,15.3c0-0.7,0.3-1.3,0.7-1.8s1.1-0.7,1.8-0.7c0.7,0,1.3,0.3,1.8,0.7c1,1,1,2.6,0,3.5
		c-1,1-2.6,1-3.5,0C14,16.6,13.8,15.9,13.8,15.3z"/>
	<path d="M23,16.3C23,16.3,23,16.3,23,16.3c0.3-0.3,0.7-0.4,1.1-0.4h3l1.9,1.9c0.1,0.1,0.2,0.1,0.4,0.1s0.3,0,0.4-0.1
		c0.1-0.1,0.2-0.3,0.1-0.5c0-0.1-0.1-0.1-0.1-0.2l-1.1-1.1l-1-1l-2.1-2.1c-0.6-0.6-0.6-1.5,0-2.1c0.6-0.6,1.5-0.6,2.1,0l4.2,4.2
		l1.3,1.3l-0.1,0c0.3,0.2,0.6,0.6,0.7,1c0.1,0.5,0,0.9-0.3,1.2c-0.3,0.3-0.7,0.5-1.1,0.5h-6c0.1,0,0.3,0.1,0.4,0.1l0.9,0.9h4.8
		c0.7,0,1.4-0.3,1.9-0.9c0.5-0.6,0.7-1.3,0.6-2c-0.1-0.5-0.3-0.9-0.6-1.2c0,0,0-0.1-0.1-0.1L28.2,10c-1-1-2.6-1-3.5,0s-1,2.6,0,3.5
		l1.4,1.4h-1.6c0,0,0,0,0,0L23,16.3z"/>
	<path d="M44.9,12.8L32.6,25.2l0.4,0.4c0,0,0.1,0.1,0.1,0.2c0,0.1,0,0.1,0,0.2s0,0.1,0,0.2c0,0.1-0.1,0.1-0.1,0.2c0,0,0,0,0,0
		l12.7-12.7c0.6-0.6,1.5-0.6,2.1,0c0.3,0.3,0.4,0.7,0.4,1.1c0,0.4-0.2,0.8-0.4,1.1c0,0,0,0,0,0L31.4,32c-0.1,0.1-0.1,0.2-0.1,0.4
		v19.2c0,0.8-0.7,1.5-1.5,1.5s-1.5-0.7-1.5-1.5V32.4c0-0.1-0.1-0.3-0.1-0.4l-0.4-0.4c-0.1,0.1-0.3,0.2-0.4,0.3
		C27.1,32,27,32,26.9,32s-0.3,0-0.4-0.1l0,0c0,0,0,0,0,0l0.7,0.7v19c0,1.4,1.1,2.5,2.5,2.5s2.5-1.1,2.5-2.5v-19l16.2-16.2
		c0.5-0.5,0.7-1.1,0.7-1.8s-0.3-1.3-0.7-1.8C47.5,11.9,45.9,11.9,44.9,12.8z"/>
	<path d="M18.5,21.6C18.5,21.6,18.5,21.6,18.5,21.6C18.5,21.6,18.6,21.6,18.5,21.6C18.6,21.6,18.6,21.6,18.5,21.6z"/>
	<path class="st0" d="M26.9,32c0.1,0,0.3,0,0.4-0.1c0.1-0.1,0.3-0.2,0.4-0.3c0.5-0.3,1.1-0.4,1.8-0.4c0.7,0.1,1.5-0.2,2-0.7
		c0.5-0.5,0.8-1.3,0.7-2c-0.1-0.9,0.2-1.7,0.7-2.2c0,0,0,0,0,0c0,0,0.1-0.1,0.1-0.2c0-0.1,0-0.1,0-0.2s0-0.1,0-0.2
		c0-0.1-0.1-0.1-0.1-0.2l-0.4-0.4l-5.3-5.3L26.4,19c-0.1-0.1-0.2-0.1-0.4-0.1h-1.9c-0.8,0-1.6-0.6-1.6-1.4c0-0.4,0.1-0.9,0.4-1.2v0
		c0,0,0,0,0,0l1.4-1.4c0,0,0,0,0,0c0.2-0.2,0.2-0.5,0-0.7c-0.2-0.2-0.5-0.2-0.7,0l-1.4,1.4l-2.8,2.8l-2.8,2.8v0l-1.4,1.4
		c-0.2,0.2-0.2,0.5,0,0.7c0.1,0.1,0.2,0.1,0.4,0.1c0.1,0,0.2,0,0.3-0.1c0,0,0,0,0,0c0,0,0,0,0,0l1.4-1.4c0,0,0,0,0,0c0,0,0,0,0,0
		l0,0c0,0,0,0,0,0c0,0,0,0,0.1,0c0.1-0.1,0.1-0.1,0.2-0.1c0,0,0.1,0,0.1-0.1c0.1,0,0.1-0.1,0.2-0.1c0,0,0.1,0,0.1,0
		c0.1,0,0.1,0,0.2,0c0,0,0.1,0,0.1,0c0.1,0,0.1,0,0.2,0c0,0,0,0,0.1,0c0,0,0.1,0,0.1,0c0.1,0,0.1,0,0.2,0c0,0,0,0,0.1,0
		c0.6,0.2,1.1,0.8,1.1,1.6v1.9c0,0.1,0.1,0.3,0.1,0.4l0.2,0.2l0.4-0.4l0.3-0.3l0.1-0.1l-0.1-0.1v-1.7c0-1-0.5-1.8-1.3-2.3
		c0,0,0,0,0,0c-0.1-0.1-0.2-0.1-0.3-0.2c-0.1,0-0.1,0-0.2-0.1c-0.1,0-0.2,0-0.2-0.1c0,0,0,0-0.1,0c0,0,0,0,0,0l2.8-2.8c0,0,0,0,0,0
		c0.2,1.2,1.3,2.1,2.6,2.1h1.7l6,6l0,0l0,0c-0.4,0.6-0.6,1.3-0.7,2c0,0,0,0,0,0c0,0.2,0,0.4,0,0.6c0,0.4-0.1,0.9-0.4,1.2
		c-0.3,0.3-0.8,0.5-1.2,0.4c-0.2,0-0.4,0-0.6,0c0,0,0,0,0,0c-0.8,0-1.5,0.3-2,0.7l0,0l0,0l-2.4-2.4l-0.4,0.4l-0.4,0.4l2.7,2.7l0,0
		C26.6,32,26.8,32,26.9,32z"/>
	<path d="M24.5,28.5l1.3-1.3c0.5-0.5,0.7-1.1,0.7-1.8s-0.3-1.3-0.7-1.8c-0.9-0.9-2.6-0.9-3.5,0L21,24.9L20.9,25l-0.3,0.3l-0.4,0.4
		l-0.2-0.2c-0.1-0.1-0.1-0.2-0.1-0.4v1l-1.9,1.9c-0.2,0.2-0.2,0.5,0,0.7c0.1,0.1,0.3,0.2,0.5,0.1c0.1,0,0.1-0.1,0.2-0.1l1.1-1.1l1-1
		l0.1-0.1l0.4-0.4l0.4-0.4l1.3-1.3c0.6-0.6,1.6-0.6,2.1,0c0.3,0.3,0.4,0.7,0.4,1.1s-0.2,0.8-0.4,1.1l-1.3,1.3l-0.4,0.4l-0.4,0.4
		l-2.2,2.2l-1.3,1.3l0,0l0,0c0,0,0,0,0,0c0,0-0.1,0.1-0.1,0.1c0,0-0.1,0.1-0.1,0.1c0,0-0.1,0.1-0.1,0.1c0,0-0.1,0.1-0.1,0.1
		c0,0-0.1,0.1-0.1,0.1c0,0-0.1,0-0.1,0.1c-0.1,0-0.1,0-0.2,0c0,0-0.1,0-0.2,0c-0.1,0-0.1,0-0.2,0c-0.1,0-0.1,0-0.2,0
		c0,0-0.1,0-0.1,0c-0.2,0-0.3-0.1-0.5-0.2c0,0,0,0,0,0c-0.4-0.3-0.7-0.8-0.7-1.4l0-7.9c0-0.1,0-0.2,0-0.3c0,0,0,0,0,0
		c0-0.1,0-0.1,0-0.2c0,0,0-0.1,0-0.1c0,0,0-0.1,0.1-0.1c0,0,0-0.1,0.1-0.1c0-0.1,0.1-0.1,0.1-0.2c0,0,0.1-0.1,0.1-0.1c0,0,0,0-0.1,0
		c0,0,0,0,0,0l0,0c0,0,0,0,0,0c0,0,0,0,0,0l-1.4,1.4c0,0,0,0,0,0c0,0,0,0,0,0v7.5v0.1c0,0.9,0.5,1.7,1.2,2.1c0,0,0.1,0,0.1,0.1
		c0.1,0,0.2,0.1,0.2,0.1c0.1,0,0.2,0.1,0.3,0.1c0.1,0,0.1,0,0.2,0c0,0,0,0,0.1,0c0.1,0,0.3,0,0.4,0c0,0,0,0,0,0c0,0,0,0,0.1,0
		c0.1,0,0.3,0,0.4,0c0.1,0,0.1,0,0.2,0c0.1,0,0.2,0,0.3-0.1c0.1,0,0.1-0.1,0.2-0.1c0.1,0,0.2-0.1,0.2-0.1c0.1,0,0.1-0.1,0.2-0.1
		c0,0,0.1-0.1,0.1-0.1c0,0,0,0,0.1-0.1c0,0,0.1,0,0.1-0.1c0,0,0,0,0,0l3.6-3.6l0.4-0.4L24.5,28.5z"/>
</g>
</svg>
