<?xml version="1.0" encoding="utf-8"?>
<!-- Generator: Adobe Illustrator 25.2.1, SVG Export Plug-In . SVG Version: 6.00 Build 0)  -->
<svg version="1.1" id="Layer_1" xmlns="http://www.w3.org/2000/svg" xmlns:xlink="http://www.w3.org/1999/xlink" x="0px" y="0px"
	 viewBox="0 0 63 63" style="enable-background:new 0 0 63 63;" xml:space="preserve">
<style type="text/css">
	.st0{fill:#FCB019;}
	.st1{fill:#EE2B2F;}
</style>
<g id="Tennis">
	<path d="M24.3,24.8c0.9,0,1.8-0.3,2.5-1c1.4-1.4,1.4-3.6,0-4.9c-1.3-1.3-3.6-1.3-4.9,0c-0.7,0.7-1,1.5-1,2.5c0,0.9,0.4,1.8,1,2.5
		C22.5,24.4,23.4,24.8,24.3,24.8z M22.5,19.5c0.5-0.5,1.1-0.7,1.8-0.7c0.7,0,1.3,0.3,1.8,0.7c1,1,1,2.6,0,3.5c-1,1-2.6,1-3.5,0
		c-0.5-0.5-0.7-1.1-0.7-1.8C21.8,20.6,22,20,22.5,19.5z"/>
	<path class="st0" d="M38.8,9.5c0.5,0,1-0.2,1.4-0.6c0.8-0.8,0.8-2,0-2.8c-0.8-0.8-2.1-0.8-2.8,0c-0.8,0.8-0.8,2,0,2.8
		C37.7,9.3,38.2,9.5,38.8,9.5z M38.1,6.8c0.2-0.2,0.4-0.3,0.7-0.3c0.3,0,0.5,0.1,0.7,0.3c0.4,0.4,0.4,1,0,1.4c-0.4,0.4-1,0.4-1.4,0
		C37.7,7.8,37.7,7.2,38.1,6.8z"/>
	<path class="st1" d="M15.6,26.6v-4.1c2-0.3,3.5-2.4,3.5-4.9c0-2.8-1.8-5-4-5s-4,2.2-4,5c0,2.5,1.5,4.6,3.5,4.9v4.1
		c0.2,0,0.3-0.1,0.5-0.1S15.4,26.6,15.6,26.6z M12.1,17.6c0-2.2,1.3-4,3-4s3,1.8,3,4s-1.3,4-3,4S12.1,19.8,12.1,17.6z"/>
	<path class="st1" d="M15.6,31.7v-0.2c-0.1,0-0.1,0-0.2,0c-0.1,0-0.2,0-0.3,0c-0.2,0-0.3,0-0.5-0.1v0.6v1c0,0.3,0.2,0.5,0.5,0.5
		c0.3,0,0.5-0.2,0.5-0.5c0,0,0,0,0,0V31.7z"/>
	<path d="M40.9,31.5l-6.7-6.7l11-11c0.5-0.5,0.7-1.1,0.7-1.8s-0.3-1.3-0.7-1.8c-0.9-0.9-2.6-0.9-3.5,0L20.8,31.2l-3.9-3.9
		c0,0-0.1,0-0.1-0.1c-0.3-0.3-0.7-0.5-1.2-0.6c-0.2,0-0.3-0.1-0.5-0.1s-0.3,0-0.5,0.1c-0.5,0.1-0.9,0.3-1.2,0.6c0,0,0,0-0.1,0.1
		c-0.2,0.2-0.4,0.5-0.5,0.8c0,0,0,0,0,0c-0.1,0.1-0.1,0.3-0.1,0.4c0,0,0,0.1,0,0.1c0,0.2-0.1,0.3-0.1,0.5s0,0.3,0.1,0.5
		c0,0,0,0.1,0,0.1c0,0.1,0.1,0.3,0.1,0.4c0,0,0,0,0,0c0.1,0.2,0.2,0.3,0.3,0.5c0,0,0.1,0.1,0.1,0.1c0.1,0.1,0.1,0.1,0.2,0.2l1.3,1.3
		v-0.6c0.2,0,0.3,0.1,0.5,0.1c0.1,0,0.2,0,0.3,0c0.1,0,0.1,0,0.2,0c1-0.2,1.8-1.1,2-2.1l2.8,2.8c0.2,0.2,0.5,0.2,0.7,0L42.3,11
		c0.6-0.6,1.6-0.6,2.1,0c0.3,0.3,0.4,0.7,0.4,1.1c0,0.4-0.2,0.8-0.4,1.1L33.1,24.5c-0.2,0.2-0.2,0.5,0,0.7l6.7,6.7l-4.9,4.9
		l-6.7-6.7C28.1,30,27.9,30,27.8,30s-0.3,0-0.4,0.1l-5.7,5.7c-0.6,0.6-1.5,0.6-2.1,0l-4.1-4.1v1.4c0,0,0,0,0,0l3.4,3.4
		c1,1,2.6,1,3.5,0l5.3-5.3l6.7,6.7l0.7,0.7v7.9l-6.3,6.3c-1,1-1,2.6,0,3.5c0.5,0.5,1.1,0.7,1.8,0.7s1.3-0.2,1.8-0.7l7.1-7.1
		c0.5-0.5,0.7-1.1,0.7-1.8v-9l0.3-0.3l4.6,4.6v8.9c0,1.3,0.9,2.4,2.1,2.6c0.7,0.1,1.5-0.1,2-0.6c0.6-0.5,0.9-1.2,0.9-1.9v-10
		c0-0.7-0.3-1.3-0.7-1.8L40.9,31.5z M15.6,30.5c-0.2,0.1-0.3,0.1-0.5,0.1s-0.3,0-0.5-0.1c-0.3-0.1-0.6-0.3-0.7-0.6c0,0,0,0,0,0
		c0-0.1-0.1-0.1-0.1-0.2c0,0,0,0,0,0c0-0.1-0.1-0.1-0.1-0.2c0,0,0,0,0-0.1c0-0.1,0-0.2,0-0.3s0-0.2,0-0.3c0,0,0,0,0-0.1
		c0-0.1,0-0.2,0.1-0.2c0,0,0,0,0,0c0-0.1,0.1-0.2,0.1-0.2c0,0,0,0,0,0c0.1-0.1,0.1-0.1,0.2-0.2c0.2-0.2,0.3-0.3,0.6-0.3
		c0.2-0.1,0.3-0.1,0.5-0.1s0.3,0,0.5,0.1c0.2,0.1,0.4,0.2,0.6,0.3c0.3,0.3,0.4,0.6,0.4,1.1C16.6,29.7,16.2,30.3,15.6,30.5z
		 M49.1,51.8c0,0.4-0.2,0.9-0.5,1.1c-0.3,0.3-0.8,0.4-1.2,0.3c-0.7-0.1-1.2-0.8-1.2-1.6v-9.1c0-0.1-0.1-0.3-0.1-0.4l-5.1-5.1
		c-0.2-0.2-0.5-0.2-0.7,0L39.4,38c-0.1,0.1-0.1,0.2-0.1,0.4v9.2c0,0.4-0.2,0.8-0.4,1.1l-7.1,7.1c-0.6,0.6-1.5,0.6-2.1,0
		c-0.6-0.6-0.6-1.5,0-2.1l6.5-6.5c0.1-0.1,0.1-0.2,0.1-0.4v-8.3c0-0.1-0.1-0.3-0.1-0.4l-0.5-0.5l4.9-4.9l8.1,8.1
		c0.3,0.3,0.4,0.7,0.4,1.1V51.8z"/>
</g>
</svg>
