<?xml version="1.0" encoding="utf-8"?>
<!-- Generator: Adobe Illustrator 25.2.1, SVG Export Plug-In . SVG Version: 6.00 Build 0)  -->
<svg version="1.1" id="Layer_1" xmlns="http://www.w3.org/2000/svg" xmlns:xlink="http://www.w3.org/1999/xlink" x="0px" y="0px"
	 viewBox="0 0 63 63" style="enable-background:new 0 0 63 63;" xml:space="preserve">
<style type="text/css">
	.st0{fill:#00A64F;}
</style>
<g id="Volleyball">
	<path d="M45.3,15.1c-0.6-0.3-1.3-0.3-1.9,0l-14.8,6.1c0,0,0,0,0,0l-5.1,2.1l-2.1-5.1c-0.3-0.6-0.7-1.1-1.4-1.4
		c-0.6-0.3-1.3-0.3-1.9,0c-0.6,0.3-1.1,0.7-1.4,1.4c-0.3,0.6-0.3,1.3,0,1.9l3.1,7.4c0.4,1,1.3,1.5,2.3,1.5c0.3,0,0.6-0.1,1-0.2
		c0,0,0,0,0,0l4.1-1.7l3.6,8.8l0.8,1.8l-2.5,6L21,47.2c-1.2,0.5-1.9,1.9-1.5,3.1c0.2,0.7,0.7,1.2,1.3,1.5c0.3,0.2,0.7,0.2,1.1,0.2
		c0.3,0,0.7-0.1,1-0.2L32,48c0.6-0.3,1.1-0.7,1.4-1.4l1.5-3.7l1.1,2.7L32.6,54c-0.3,0.6-0.3,1.3,0,1.9c0.3,0.6,0.7,1.1,1.4,1.4
		c0.3,0.1,0.6,0.2,1,0.2c0.3,0,0.6-0.1,0.9-0.2c0.6-0.3,1.1-0.7,1.4-1.4l3.8-9.2c0.3-0.6,0.3-1.3,0-1.9l-3.5-8.4
		c0.3-1,0.2-2.1-0.2-3.1l-3.6-8.8l11.6-4.8c0.6-0.3,1.1-0.7,1.4-1.4c0.3-0.6,0.3-1.3,0-1.9C46.4,15.9,45.9,15.4,45.3,15.1z
		 M40.1,46.3l-3.8,9.2c-0.2,0.4-0.4,0.7-0.8,0.8c-0.4,0.2-0.8,0.1-1.1,0c-0.4-0.2-0.7-0.4-0.8-0.8c-0.2-0.4-0.1-0.8,0-1.1l3.5-8.5
		c0.1-0.1,0.1-0.3,0-0.4l-1.6-3.8l1.6-3.9l3,7.4C40.3,45.5,40.3,45.9,40.1,46.3z M32.5,46.3c-0.2,0.4-0.4,0.7-0.8,0.8L22.4,51
		c-0.4,0.2-0.8,0.2-1.2,0c-0.4-0.2-0.7-0.5-0.8-0.9c-0.2-0.7,0.2-1.5,1-1.9l8.4-3.5c0.1-0.1,0.2-0.1,0.3-0.3l2.7-6.4
		c0.1-0.1,0-0.4-0.1-0.5L32,36.1v0l0.5-0.2l0.6-0.3l1.2-0.5l0,0l1.2-0.5l0.6-0.3l0.4-0.2c0,0,0,0,0,0c0.1,0.2,0.1,0.4,0.1,0.6
		c0,0.3,0,0.6,0,0.9c0,0.3-0.1,0.6-0.2,0.8c0,0.1,0,0.1-0.1,0.2l-1.5,3.7l-0.3,0.7l-0.3,0.7L32.5,46.3L32.5,46.3z M34,34.2L34,34.2
		L34,34.2l-2.3,1l-3.4-8.3l1.4-0.6c0.1,0,0.2-0.1,0.2-0.2c0.1-0.1,0.1-0.3,0-0.4c0,0,0,0,0-0.1c-0.1-0.2-0.3-0.3-0.5-0.2
		c0,0-0.1,0-0.1,0l-0.3,0.1l-0.6,0.3l-0.5,0.2l-0.5,0.2l-0.5,0.2L22.7,28c0,0,0,0,0,0c-0.4,0.1-0.7,0.1-1.1,0
		c-0.4-0.2-0.7-0.4-0.8-0.8l-3.1-7.4c-0.2-0.4-0.2-0.8,0-1.1c0.2-0.4,0.4-0.7,0.8-0.8c0.4-0.2,0.8-0.2,1.1,0
		c0.4,0.2,0.7,0.4,0.8,0.8l2.3,5.5c0.1,0.1,0.1,0.2,0.3,0.3c0.1,0.1,0.3,0.1,0.4,0l3.3-1.4l0.4-0.2l0.3-0.1l0.3-0.1l1.1-0.5l0,0
		c0,0,0.1,0,0.1-0.1l0,0l0,0c0,0,0,0,0,0c1.3-0.5,2.7,0.1,3.3,1.4l0.2,0.5l0.2,0.5l0.2,0.5l3.4,8.3L34,34.2z M33.2,23.2
		c-0.4-0.9-1.1-1.6-1.9-1.9l12.5-5.2c0.2-0.1,0.4-0.1,0.6-0.1c0.2,0,0.4,0,0.6,0.1c0.4,0.2,0.7,0.4,0.8,0.8c0.3,0.8,0,1.6-0.8,2
		l-11.6,4.8L33.2,23.2z"/>
	<path d="M25.5,20.3c0.4,0.2,0.9,0.3,1.3,0.3c0.5,0,0.9-0.1,1.3-0.3c0.9-0.4,1.5-1,1.9-1.9c0.4-0.9,0.4-1.8,0-2.7
		c-0.7-1.8-2.8-2.6-4.6-1.9c-0.9,0.4-1.5,1-1.9,1.9c-0.4,0.9-0.4,1.8,0,2.7C24,19.3,24.7,20,25.5,20.3z M24.6,16.1
		c0.3-0.6,0.7-1.1,1.4-1.4c0.3-0.1,0.6-0.2,1-0.2c1,0,1.9,0.6,2.3,1.5c0.3,0.6,0.3,1.3,0,1.9s-0.7,1.1-1.4,1.4
		c-0.6,0.3-1.3,0.3-1.9,0c-0.6-0.3-1.1-0.7-1.4-1.4S24.3,16.8,24.6,16.1z"/>
	<path class="st0" d="M34,13.5c0.9,0,1.8-0.4,2.5-1s1-1.5,1-2.5c0-0.9-0.4-1.8-1-2.5c-1.3-1.3-3.6-1.3-4.9,0c-0.7,0.7-1,1.5-1,2.5
		c0,0.9,0.4,1.8,1,2.5S33,13.5,34,13.5z M32.2,8.3c0.5-0.5,1.1-0.7,1.8-0.7c0.7,0,1.3,0.3,1.8,0.7c0.5,0.5,0.7,1.1,0.7,1.8
		c0,0.7-0.3,1.3-0.7,1.8c-0.9,0.9-2.6,0.9-3.5,0c-0.5-0.5-0.7-1.1-0.7-1.8C31.5,9.4,31.7,8.7,32.2,8.3z"/>
</g>
</svg>
