<?xml version="1.0" encoding="utf-8"?>
<!-- Generator: Adobe Illustrator 25.2.1, SVG Export Plug-In . SVG Version: 6.00 Build 0)  -->
<svg version="1.1" id="Layer_1" xmlns="http://www.w3.org/2000/svg" xmlns:xlink="http://www.w3.org/1999/xlink" x="0px" y="0px"
	 viewBox="0 0 63 63" style="enable-background:new 0 0 63 63;" xml:space="preserve">
<style type="text/css">
	.st0{fill:#2A76BC;}
	.st1{fill:#FCB019;}
</style>
<g id="Weightlifting">
	<path d="M31.7,19.5c1.9,0,3.5-1.6,3.5-3.5s-1.6-3.5-3.5-3.5S28.2,14,28.2,16S29.8,19.5,31.7,19.5z M34.2,16c0,1.4-1.1,2.5-2.5,2.5
		s-2.5-1.1-2.5-2.5s1.1-2.5,2.5-2.5S34.2,14.6,34.2,16z"/>
	<path d="M28.5,21.5h6.4c0.1,0,0.3-0.1,0.4-0.1l9.2-9.2h-0.7H43l-8.3,8.3h-5.9l-8.3-8.3h-0.7H19l9.2,9.2
		C28.3,21.4,28.4,21.5,28.5,21.5z"/>
	<path class="st0" d="M3.7,11.1c-0.3,0-0.5,0.2-0.5,0.5s0.2,0.5,0.5,0.5h1.5v-1H3.7z"/>
	<path class="st0" d="M14,11.1h-3.7v1H14c0-0.2-0.1-0.3-0.1-0.5C13.9,11.5,13.9,11.3,14,11.1z"/>
	<path class="st0" d="M49.5,11.1c0,0.2,0.1,0.3,0.1,0.5c0,0.2,0,0.3-0.1,0.5h3.7v-1H49.5z"/>
	<path class="st0" d="M59.7,11.1h-1.5v1h1.5c0.3,0,0.5-0.2,0.5-0.5S60,11.1,59.7,11.1z"/>
	<path class="st0" d="M18.9,11.3c0,0.1,0,0.2,0,0.4c0,0.1,0,0.2,0,0.3c0,0.1,0,0.1,0,0.2H19h0.7h0.7H43h0.7h0.7h0.2
		c0-0.1,0-0.1,0-0.2c0-0.1,0-0.2,0-0.3c0-0.1,0-0.2,0-0.4c0,0,0-0.1,0-0.1H44H19.4h-0.6C18.9,11.2,18.9,11.2,18.9,11.3z"/>
	<path class="st1" d="M58.2,7.6c0-0.3-0.2-0.5-0.5-0.5h-1.5V5.6c0-0.3-0.2-0.5-0.5-0.5h-2c-0.3,0-0.5,0.2-0.5,0.5v5.5v1v5.5
		c0,0.3,0.2,0.5,0.5,0.5h2c0.3,0,0.5-0.2,0.5-0.5v-1.5h1.5c0.3,0,0.5-0.2,0.5-0.5v-3.5v-1V7.6z M57.2,11.1v1v3h-1v-3v-1v-3h1V11.1z
		 M55.2,15.6v1.5h-1v-5v-1v-5h1v1.5v3.5v1V15.6z"/>
	<path class="st1" d="M10.2,5.6c0-0.3-0.2-0.5-0.5-0.5h-2c-0.3,0-0.5,0.2-0.5,0.5v1.5H5.7c-0.3,0-0.5,0.2-0.5,0.5v3.5v1v3.5
		c0,0.3,0.2,0.5,0.5,0.5h1.5v1.5c0,0.3,0.2,0.5,0.5,0.5h2c0.3,0,0.5-0.2,0.5-0.5v-5.5v-1V5.6z M9.2,11.1v1v5h-1v-1.5v-3.5v-1V7.6
		V6.1h1V11.1z M6.2,12.1v-1v-3h1v3v1v3h-1V12.1z"/>
	<path d="M49.5,11.1c-0.1-0.5-0.3-0.9-0.7-1.3c-1-1-2.6-1-3.5,0L44,11.1h0.6c0,0,0,0.1,0,0.1c0,0.1,0,0.2,0,0.4c0,0.1,0,0.2,0,0.3
		c0,0.1,0,0.1,0,0.2c0.1,0.5,0.3,0.9,0.7,1.3c0.4,0.4,0.9,0.6,1.4,0.7L35.4,25.4c-0.1,0.1-0.1,0.2-0.1,0.4v8.7h-7v-8.7
		c0-0.1-0.1-0.3-0.1-0.4L16.7,14.1c0.5-0.1,1-0.3,1.4-0.7c0.4-0.4,0.6-0.8,0.7-1.3c0-0.1,0-0.1,0-0.2c0-0.1,0-0.2,0-0.3
		c0-0.1,0-0.2,0-0.4c0,0,0-0.1,0-0.1h0.6l-1.3-1.3c-1-1-2.6-1-3.5,0c-0.4,0.4-0.6,0.8-0.7,1.3c0,0.2-0.1,0.3-0.1,0.5
		c0,0.2,0,0.3,0.1,0.5c0,0.2,0.1,0.4,0.2,0.6c0.1,0.2,0.3,0.5,0.5,0.7L27.2,26v9v1.5l-7.5,18c-0.5,1.3,0.1,2.7,1.4,3.3
		c0.3,0.1,0.6,0.2,0.9,0.2c0.3,0,0.7-0.1,1-0.2c0.6-0.3,1.1-0.7,1.3-1.4l7-16.9H32l7,16.9c0.3,0.6,0.7,1.1,1.3,1.4
		c0.6,0.3,1.3,0.3,1.9,0c0,0,0,0,0,0c1.3-0.5,1.9-2,1.3-3.3l-7.5-18V35v-9l12.6-12.6c0.2-0.2,0.4-0.4,0.5-0.7
		c0.1-0.2,0.2-0.4,0.2-0.6c0-0.2,0.1-0.3,0.1-0.5C49.5,11.5,49.5,11.3,49.5,11.1z M46,12.7c-0.2-0.2-0.3-0.4-0.3-0.6
		c-0.1-0.2-0.1-0.3-0.1-0.5c0-0.2,0-0.3,0.1-0.5c0.1-0.2,0.2-0.4,0.3-0.6c0.1-0.1,0.3-0.2,0.4-0.3c0.1,0,0.1,0,0.2-0.1
		c0.1,0,0.2,0,0.3-0.1c0.2,0,0.4,0,0.6,0.1c0.2,0.1,0.4,0.2,0.6,0.3c0.1,0.1,0.1,0.2,0.2,0.3c0.1,0.1,0.1,0.2,0.1,0.3
		c0.1,0.2,0.1,0.3,0.1,0.5c0,0.2,0,0.3-0.1,0.5c0,0,0,0.1,0,0.1c-0.1,0.2-0.2,0.3-0.3,0.5C47.5,13.3,46.6,13.3,46,12.7z M40.8,56.8
		c-0.4-0.2-0.7-0.4-0.8-0.8l-7.2-17.2c-0.1-0.2-0.3-0.3-0.5-0.3h-1.3c-0.2,0-0.4,0.1-0.5,0.3L23.4,56c-0.2,0.4-0.4,0.7-0.8,0.8
		c-0.4,0.2-0.8,0.2-1.1,0c-0.8-0.3-1.1-1.2-0.8-2l7.5-18.1c0-0.1,0-0.1,0-0.2v-1.1h7v1.1c0,0.1,0,0.1,0,0.2l7.5,18.1
		c0.3,0.8,0,1.6-0.8,2C41.6,57,41.2,57,40.8,56.8z M17.5,12.7c-0.6,0.6-1.6,0.6-2.1,0c-0.1-0.1-0.3-0.3-0.3-0.5c0,0,0,0,0-0.1
		c-0.1-0.2-0.1-0.3-0.1-0.5c0-0.2,0-0.3,0.1-0.5c0-0.1,0.1-0.2,0.2-0.3c0.1-0.1,0.1-0.2,0.2-0.2c0.1-0.1,0.3-0.3,0.5-0.3
		c0,0,0,0,0,0c0.2-0.1,0.4-0.1,0.6-0.1c0.2,0,0.4,0,0.6,0.1c0,0,0,0,0,0c0.2,0.1,0.3,0.2,0.5,0.3c0,0,0,0,0,0
		c0.2,0.2,0.3,0.4,0.3,0.6c0.1,0.2,0.1,0.3,0.1,0.5c0,0.2,0,0.3-0.1,0.5C17.7,12.3,17.6,12.5,17.5,12.7z"/>
</g>
</svg>
