<?xml version="1.0" encoding="utf-8"?>
<!-- Generator: Adobe Illustrator 25.2.1, SVG Export Plug-In . SVG Version: 6.00 Build 0)  -->
<svg version="1.1" id="Layer_1" xmlns="http://www.w3.org/2000/svg" xmlns:xlink="http://www.w3.org/1999/xlink" x="0px" y="0px"
	 viewBox="0 0 63 63" style="enable-background:new 0 0 63 63;" xml:space="preserve">
<g id="Wrestling_Greco-Roman">
	<path d="M28.2,22.4c0.9,0,1.8-0.3,2.5-1c0.7-0.7,1-1.5,1-2.5c0-0.9-0.4-1.8-1-2.5c-1.3-1.3-3.6-1.3-4.9,0c-0.7,0.7-1,1.5-1,2.5
		c0,0.9,0.4,1.8,1,2.5C26.4,22.1,27.3,22.4,28.2,22.4z M26.4,17.1c0.5-0.5,1.1-0.7,1.8-0.7s1.3,0.3,1.8,0.7s0.7,1.1,0.7,1.8
		c0,0.7-0.3,1.3-0.7,1.8c-1,1-2.6,1-3.5,0c-0.5-0.5-0.7-1.1-0.7-1.8C25.7,18.2,25.9,17.6,26.4,17.1z"/>
	<path d="M35.3,16.7c0.9,0,1.8-0.3,2.5-1c1.4-1.4,1.4-3.6,0-4.9c-1.4-1.4-3.6-1.4-4.9,0c-1.4,1.4-1.4,3.6,0,4.9
		C33.5,16.4,34.4,16.7,35.3,16.7z M33.5,11.5c1-1,2.6-1,3.5,0s1,2.6,0,3.5s-2.6,1-3.5,0C32.5,14,32.5,12.5,33.5,11.5z"/>
	<path d="M52.6,37.1v-7.9c0.9-1,0.9-2.5,0-3.5l-1.4-1.4c0,0,0,0,0,0l-7.8-7.8c-1.4-1.4-3.6-1.4-4.9,0c0,0,0,0,0,0l-5.7,5.7
		c0,0,0,0,0,0L28.9,26L25,22.1c-1.4-1.4-3.6-1.4-4.9,0l-7.8,7.8c0,0,0,0,0,0l-1.4,1.4c-1,1-1,2.5,0,3.5v7.9L4.6,49
		c-0.9,0.9-1,2.3-0.3,3.3c0.4,0.6,1.1,1,1.8,1c0.1,0,0.1,0,0.2,0c0.7,0,1.3-0.3,1.8-0.7l7.1-7.1c0.5-0.5,0.7-1.1,0.7-1.8v-4l2.1,2.1
		v8.9c0,1.3,0.9,2.4,2.1,2.6c0.1,0,0.3,0,0.4,0c0.6,0,1.2-0.2,1.6-0.6c0.6-0.5,0.9-1.2,0.9-1.9v-10c0-0.7-0.3-1.3-0.7-1.8l-4.6-4.6
		l6.4-6.4l3.2,3.2c0.5,0.5,1.1,0.7,1.8,0.7c0.6,0,1.3-0.2,1.8-0.7l5.6-5.6c0,0,0,0,0,0c0,0,0,0,0,0l3.2-3.2l6.4,6.4l-4.6,4.6
		c-0.5,0.5-0.7,1.1-0.7,1.8v10c0,0.7,0.3,1.4,0.9,1.9c0.5,0.4,1,0.6,1.6,0.6c0.1,0,0.3,0,0.4,0c1.2-0.2,2.1-1.3,2.1-2.6v-8.9
		l2.1-2.1v4c0,0.7,0.3,1.3,0.7,1.8l7.1,7.1c0.5,0.5,1.1,0.7,1.8,0.7c0.1,0,0.1,0,0.2,0c0.7-0.1,1.4-0.4,1.8-1c0.7-1,0.6-2.4-0.3-3.3
		L52.6,37.1z M57.3,46.7c-0.4,0-0.9-0.1-1.2-0.4L49,39.2c-0.3-0.3-0.4-0.7-0.4-1.1v-5l3-3v7.1c0,0.1,0.1,0.3,0.1,0.4l6.4,6.4
		c0.6,0.6,0.7,1.4,0.2,2C58.1,46.4,57.7,46.6,57.3,46.7z M44.5,36v9.1c0,0.8-0.5,1.5-1.3,1.6c-0.5,0.1-0.9-0.1-1.2-0.3
		c-0.3-0.3-0.5-0.7-0.5-1.1v-10c0-0.4,0.2-0.8,0.4-1.1l5-4.9l0.7-0.7l0.5-0.5l1.8-1.8l0.5-0.5l0.4-0.4l1.1,1.1c0,0,0,0,0,0.1
		c0.4,0.5,0.5,1.2,0.2,1.7c-0.1,0.1-0.1,0.2-0.2,0.4l-0.3,0.3l-3,3l-0.5,0.5l-0.5,0.5l-2.9,2.9C44.6,35.7,44.5,35.9,44.5,36z
		 M41.3,20.7c0.2-0.2,0.2-0.5,0-0.7c-0.2-0.2-0.4-0.2-0.6-0.1c0,0-0.1,0-0.1,0.1L39.5,21l-0.4,0.4l-0.4,0.4L37,23.5
		c-0.1-0.5-0.2-0.9-0.6-1.3c-0.4-0.5-1-0.7-1.6-0.8l2.6-2.6l0.6-0.6l1.1-1.1l0,0c0,0,0.1-0.1,0.1-0.1c0.5-0.5,1.1-0.7,1.8-0.7
		s1.3,0.2,1.8,0.7l7.4,7.4l-3.5,3.5l-6.4-6.4L41.3,20.7z M21.9,50.8c0,0.4-0.2,0.9-0.5,1.1c-0.3,0.3-0.8,0.4-1.2,0.3
		c-0.7-0.1-1.3-0.8-1.3-1.6v-9.1c0-0.1-0.1-0.3-0.1-0.4l-2.9-2.9l-0.5-0.5l-0.5-0.5l-3-3l-0.3-0.3c-0.1-0.1-0.2-0.2-0.2-0.4
		c-0.3-0.5-0.2-1.2,0.2-1.7c0,0,0,0,0-0.1l1.1-1.1l0.4,0.4l0.5,0.5l1.8,1.8l0.5,0.5l0.7,0.7l4.9,4.9c0.3,0.3,0.4,0.7,0.4,1.1V50.8z
		 M14.8,43.8c0,0.4-0.2,0.8-0.4,1.1l-7.1,7.1c-0.3,0.3-0.8,0.5-1.2,0.4c-0.4,0-0.8-0.3-1.1-0.6c-0.4-0.6-0.3-1.4,0.2-2l6.4-6.4
		c0.1-0.1,0.1-0.2,0.1-0.4v-7.1l3,3V43.8z M16.9,33.8l-3.5-3.5l7.4-7.4c1-1,2.6-1,3.5,0c0,0,0.1,0.1,0.1,0.1l0,0l1.6,1.6l2.5,2.5
		c0.2,0.2,0.5,0.2,0.7,0l2.8-2.8l0.5-0.5l0.9-0.9l0,0c0.6-0.6,1.7-0.6,2.2,0.1c0.5,0.6,0.4,1.5-0.1,2.1c0,0,0,0,0,0.1l-0.8,0.8
		l-0.5,0.5L30,30.6c-0.6,0.6-1.5,0.6-2.1,0l-3.2-3.2l-0.7-0.7l-1.1-1.1c0,0-0.1,0-0.1-0.1c-0.2-0.1-0.4-0.1-0.6,0.1
		c-0.2,0.2-0.2,0.5,0,0.7l1.1,1.1L16.9,33.8z"/>
</g>
</svg>
